<?xml version="1.0" encoding="UTF-8"?>
<svg width="54mm" height="54mm" inkscape:export-filename="logo.png" inkscape:export-xdpi="240.82964" inkscape:export-ydpi="240.82964" inkscape:version="1.2.1 (9c6d41e, 2022-07-14)" sodipodi:docname="logo.svg" version="1.1" viewBox="0 0 54 54" xml:space="preserve" xmlns="http://www.w3.org/2000/svg" xmlns:inkscape="http://www.inkscape.org/namespaces/inkscape" xmlns:sodipodi="http://sodipodi.sourceforge.net/DTD/sodipodi-0.dtd" xmlns:xlink="http://www.w3.org/1999/xlink"><sodipodi:namedview bordercolor="#000000" borderopacity="0.25" inkscape:current-layer="g34509" inkscape:cx="62.488822" inkscape:cy="119.92191" inkscape:deskcolor="#d1d1d1" inkscape:document-units="mm" inkscape:pagecheckerboard="0" inkscape:pageopacity="0" inkscape:showpageshadow="2" inkscape:window-height="847" inkscape:window-maximized="0" inkscape:window-width="1397" inkscape:window-x="0" inkscape:window-y="25" inkscape:zoom="2.4724422" pagecolor="#ffffff" showgrid="false" showguides="false"/><defs><clipPath id="b"><rect x="52.625" y="77.97" width="54" height="54" ry="5.2505" opacity=".16635" inkscape:label="clip"/></clipPath></defs><g transform="translate(-52.625 -77.97)" clip-path="url(#b)" inkscape:groupmode="layer"><rect transform="translate(1.0417e-7)" x="50.994" y="76.339" width="57.263" height="57.263" fill="#f0faf9" inkscape:label="bg"/><g inkscape:label="water-bg"><rect x="50.957" y="113.29" width="57.56" height="28.457" fill="#9ddae5"/></g><g class="graph" transform="matrix(.35153 0 0 .35153 62.047 114.99)"><g class="edge"><title>5-&gt;9</title><path d="m22.56-20.32c-0.64 1.9-2.95 8.73-4.69 13.88" stroke="#000" stroke-width=".5"/><polygon points="19.57 -5.98 16.31 -1.81 16.25 -7.1" stroke="#000" stroke-width=".5"/></g><g class="edge"><title>5-&gt;10</title><path d="m22.34-20.46c-1.47 1.36-6.76 6.26-10.75 9.95" stroke="#000" stroke-width=".5"/><polygon points="12.86 -9.3 8.01 -7.18 10.48 -11.86" stroke="#000" stroke-width=".5"/></g><g class="edge"><title>5-&gt;11</title><path d="m22.27-20.56c-1.74 1-8 4.58-12.71 7.29" stroke="#000" stroke-width=".5"/><polygon points="10.52 -11.81 5.32 -10.84 8.78 -14.85" stroke="#000" stroke-width=".5"/></g><g class="edge"><title>5-&gt;12</title><path d="m22.2-20.81c-2 0.06-9.22 0.25-14.65 0.4" stroke="#000" stroke-width=".5"/><polygon points="7.71 -18.66 2.67 -20.27 7.61 -22.16" stroke="#000" stroke-width=".5"/></g><g class="edge"><title>6-&gt;13</title><path d="m21.53-33.52c-1.57 1.24-7.23 5.71-11.5 9.08" stroke="#000" stroke-width=".5"/><polygon points="11.2 -23.13 6.2 -21.41 9.04 -25.88" stroke="#000" stroke-width=".5"/></g><g class="edge"><title>6-&gt;14</title><path d="m21.47-33.63c-1.83 0.83-8.4 3.8-13.35 6.04" stroke="#000" stroke-width=".5"/><polygon points="8.94 -26.04 3.66 -25.57 7.5 -29.23" stroke="#000" stroke-width=".5"/></g><g class="edge"><title>6-&gt;15</title><path d="m21.42-33.86c-2-0.05-9.22-0.23-14.65-0.37" stroke="#000" stroke-width=".5"/><polygon points="6.84 -32.47 1.89 -34.35 6.93 -35.97" stroke="#000" stroke-width=".5"/></g><g class="edge"><title>6-&gt;16</title><path d="m21.45-34.04c-1.87-0.71-8.61-3.28-13.68-5.22" stroke="#000" stroke-width=".5"/><polygon points="7.24 -37.58 3.2 -41 8.49 -40.85" stroke="#000" stroke-width=".5"/></g><g class="edge"><title>7-&gt;17</title><path d="m23.2-39.59c-1.73 1.01-7.97 4.64-12.66 7.37" stroke="#000" stroke-width=".5"/><polygon points="11.51 -30.76 6.31 -29.76 9.75 -33.79" stroke="#000" stroke-width=".5"/></g><g class="edge"><title>7-&gt;18</title><path d="m23.13-39.78c-1.98 0.27-9.13 1.26-14.51 2" stroke="#000" stroke-width=".5"/><polygon points="8.97 -36.06 3.78 -37.12 8.49 -39.53" stroke="#000" stroke-width=".5"/></g><g class="edge"><title>7-&gt;19</title><path d="m23.14-39.97c-1.95-0.43-9-1.98-14.31-3.15" stroke="#000" stroke-width=".5"/><polygon points="8.57 -41.38 4.06 -44.17 9.32 -44.8" stroke="#000" stroke-width=".5"/></g><g class="edge"><title>7-&gt;20</title><path d="m23.19-40.11c-1.76-0.94-8.12-4.36-12.9-6.93" stroke="#000" stroke-width=".5"/><polygon points="9.56 -45.45 5.98 -49.36 11.21 -48.53" stroke="#000" stroke-width=".5"/></g><g class="edge"><title>8-&gt;21</title><path d="m30.69-50.56c-2-0.08-9.22-0.35-14.65-0.56" stroke="#000" stroke-width=".5"/><polygon points="16.09 -49.36 11.16 -51.3 16.22 -52.86" stroke="#000" stroke-width=".5"/></g><g class="edge"><title>8-&gt;22</title><path d="m30.7-50.68c-1.93-0.5-8.92-2.31-14.18-3.68" stroke="#000" stroke-width=".5"/><polygon points="16.19 -52.64 11.79 -55.59 17.07 -56.03" stroke="#000" stroke-width=".5"/></g><g class="edge"><title>8-&gt;23</title><path d="m30.82-50.9c-1.51-1.31-6.93-6.07-11.02-9.65" stroke="#000" stroke-width=".5"/><polygon points="18.73 -59.16 16.12 -63.78 21.04 -61.8" stroke="#000" stroke-width=".5"/></g><g class="edge"><title>8-&gt;24</title><path d="m30.96-51.01c-0.96-1.75-4.44-8.08-7.06-12.84" stroke="#000" stroke-width=".5"/><polygon points="22.42 -62.91 21.54 -68.13 25.48 -64.59" stroke="#000" stroke-width=".5"/></g><g class="edge"><title>1-&gt;5</title><path d="m49.66-28.81c-2.65 0.79-12.45 3.69-19.46 5.77" stroke="#000" stroke-width=".67"/><polygon points="31.32 -20.94 24.26 -21.28 29.99 -25.41" stroke="#000" stroke-width=".67"/></g><g class="edge"><title>1-&gt;6</title><path d="m49.64-29.13c-2.69-0.46-12.57-2.14-19.76-3.37" stroke="#000" stroke-width=".67"/><polygon points="29.71 -30.16 23.53 -33.58 30.49 -34.76" stroke="#000" stroke-width=".67"/></g><g class="edge"><title>1-&gt;7</title><path d="m49.68-29.28c-2.56-1.04-12.03-4.89-18.8-7.64" stroke="#000" stroke-width=".67"/><polygon points="30.44 -34.58 25.14 -39.25 32.2 -38.9" stroke="#000" stroke-width=".67"/></g><g class="edge"><title>1-&gt;8</title><path d="m49.87-29.54c-1.83-2.07-8.62-9.71-13.48-15.18" stroke="#000" stroke-width=".67"/><polygon points="34.96 -42.81 32.28 -49.35 38.45 -45.91" stroke="#000" stroke-width=".67"/></g><g class="edge"><title>25-&gt;29</title><path d="m33.01-45.69c-1.64 1.14-7.55 5.29-12 8.41" stroke="#000" stroke-width=".5"/><polygon points="22.11 -35.91 17.01 -34.47 20.1 -38.78" stroke="#000" stroke-width=".5"/></g><g class="edge"><title>25-&gt;30</title><path d="m32.92-45.88c-1.94 0.47-8.96 2.15-14.25 3.41" stroke="#000" stroke-width=".5"/><polygon points="19.19 -40.79 13.92 -41.33 18.38 -44.2" stroke="#000" stroke-width=".5"/></g><g class="edge"><title>25-&gt;31</title><path d="m32.91-46.03c-2-0.09-9.21-0.42-14.63-0.68" stroke="#000" stroke-width=".5"/><polygon points="18.3 -44.95 13.39 -46.93 18.47 -48.45" stroke="#000" stroke-width=".5"/></g><g class="edge"><title>25-&gt;32</title><path d="m32.93-46.15c-1.93-0.54-8.87-2.49-14.11-3.96" stroke="#000" stroke-width=".5"/><polygon points="18.46 -48.39 14.12 -51.43 19.4 -51.76" stroke="#000" stroke-width=".5"/></g><g class="edge"><title>26-&gt;33</title><path d="m35.22-52.59c-1.9 0.65-8.72 2.99-13.86 4.75" stroke="#000" stroke-width=".5"/><polygon points="22.03 -46.22 16.73 -46.25 20.9 -49.53" stroke="#000" stroke-width=".5"/></g><g class="edge"><title>26-&gt;34</title><path d="m35.19-52.71c-1.99 0.19-9.18 0.87-14.58 1.39" stroke="#000" stroke-width=".5"/><polygon points="20.88 -49.59 15.74 -50.86 20.55 -53.07" stroke="#000" stroke-width=".5"/></g><g class="edge"><title>26-&gt;35</title><path d="m35.22-52.95c-1.87-0.72-8.61-3.29-13.69-5.22" stroke="#000" stroke-width=".5"/><polygon points="21.01 -56.5 16.96 -59.91 22.26 -59.77" stroke="#000" stroke-width=".5"/></g><g class="edge"><title>26-&gt;36</title><path d="m35.26-53.03c-1.73-1.01-7.96-4.66-12.65-7.4" stroke="#000" stroke-width=".5"/><polygon points="21.83 -58.86 18.39 -62.9 23.59 -61.88" stroke="#000" stroke-width=".5"/></g><g class="edge"><title>27-&gt;37</title><path d="m41.58-61.38c-2 0.12-9.2 0.54-14.62 0.86" stroke="#000" stroke-width=".5"/><polygon points="27.17 -58.78 22.07 -60.24 26.96 -62.28" stroke="#000" stroke-width=".5"/></g><g class="edge"><title>27-&gt;38</title><path d="m41.6-61.54c-1.94-0.5-8.93-2.28-14.2-3.63" stroke="#000" stroke-width=".5"/><polygon points="27.08 -63.44 22.66 -66.38 27.94 -66.83" stroke="#000" stroke-width=".5"/></g><g class="edge"><title>27-&gt;39</title><path d="m41.67-61.71c-1.65-1.12-7.62-5.19-12.11-8.24" stroke="#000" stroke-width=".5"/><polygon points="28.67 -68.45 25.52 -72.71 30.64 -71.34" stroke="#000" stroke-width=".5"/></g><g class="edge"><title>27-&gt;40</title><path d="m41.81-61.85c-1.12-1.65-5.18-7.62-8.24-12.11" stroke="#000" stroke-width=".5"/><polygon points="32.19 -72.89 30.82 -78.01 35.08 -74.86" stroke="#000" stroke-width=".5"/></g><g class="edge"><title>28-&gt;41</title><path d="m49.88-66.88c-1.96-0.42-9.02-1.93-14.33-3.07" stroke="#000" stroke-width=".5"/><polygon points="35.29 -68.22 30.77 -70.98 36.03 -71.64" stroke="#000" stroke-width=".5"/></g><g class="edge"><title>28-&gt;42</title><path d="m50-67.12c-1.51-1.32-6.93-6.08-11.01-9.67" stroke="#000" stroke-width=".5"/><polygon points="37.92 -75.4 35.32 -80.01 40.23 -78.03" stroke="#000" stroke-width=".5"/></g><g class="edge"><title>28-&gt;43</title><path d="m50.14-67.23c-0.96-1.76-4.44-8.08-7.06-12.84" stroke="#000" stroke-width=".5"/><polygon points="41.6 -79.13 40.72 -84.35 44.66 -80.82" stroke="#000" stroke-width=".5"/></g><g class="edge"><title>28-&gt;44</title><path d="m50.31-67.29c-0.36-1.97-1.62-9.08-2.57-14.43" stroke="#000" stroke-width=".5"/><polygon points="46.03 -81.3 46.88 -86.53 49.48 -81.91" stroke="#000" stroke-width=".5"/></g><g class="edge"><title>2-&gt;25</title><path d="m60.97-40.4c-2.68-0.55-12.5-2.54-19.65-4" stroke="#000" stroke-width=".67"/><polygon points="41.08 -42.07 35.01 -45.68 42.01 -46.64" stroke="#000" stroke-width=".67"/></g><g class="edge"><title>2-&gt;26</title><path d="m61.02-40.57c-2.48-1.2-11.69-5.64-18.28-8.81" stroke="#000" stroke-width=".67"/><polygon points="42.15 -47.07 37.16 -52.07 44.18 -51.28" stroke="#000" stroke-width=".67"/></g><g class="edge"><title>2-&gt;27</title><path d="m61.18-40.78c-1.87-2.03-8.81-9.54-13.78-14.91" stroke="#000" stroke-width=".67"/><polygon points="46.01 -53.76 43.2 -60.23 49.44 -56.92" stroke="#000" stroke-width=".67"/></g><g class="edge"><title>2-&gt;28</title><path d="m61.39-40.92c-1.08-2.54-5.08-11.95-7.94-18.68" stroke="#000" stroke-width=".67"/><polygon points="51.48 -58.25 51.02 -65.3 55.78 -60.07" stroke="#000" stroke-width=".67"/></g><g class="edge"><title>45-&gt;49</title><path d="m57.88-64.69c-1.95 0.44-8.99 2.02-14.29 3.21" stroke="#000" stroke-width=".5"/><polygon points="44.08 -59.8 38.82 -60.41 43.31 -63.22" stroke="#000" stroke-width=".5"/></g><g class="edge"><title>45-&gt;50</title><path d="m57.87-64.84c-2-0.1-9.21-0.46-14.63-0.74" stroke="#000" stroke-width=".5"/><polygon points="43.26 -63.83 38.35 -65.83 43.44 -67.32" stroke="#000" stroke-width=".5"/></g><g class="edge"><title>45-&gt;51</title><path d="m57.92-65.03c-1.82-0.83-8.4-3.81-13.34-6.06" stroke="#000" stroke-width=".5"/><polygon points="43.95 -69.45 40.13 -73.11 45.4 -72.64" stroke="#000" stroke-width=".5"/></g><g class="edge"><title>45-&gt;52</title><path d="m58.24-64.98c-1.01-1.06-6.37-6.66-10.34-10.81" stroke="#000" stroke-width=".5"/><polygon points="46.76 -74.46 44.57 -79.28 49.29 -76.88" stroke="#000" stroke-width=".5"/></g><g class="edge"><title>46-&gt;53</title><path d="m62.76-69.84c-1.99 0.15-9.19 0.66-14.61 1.05" stroke="#000" stroke-width=".5"/><polygon points="48.38 -67.05 43.27 -68.44 48.13 -70.54" stroke="#000" stroke-width=".5"/></g><g class="edge"><title>46-&gt;54</title><path d="m62.8-70.07c-1.87-0.73-8.59-3.35-13.65-5.33" stroke="#000" stroke-width=".5"/><polygon points="48.62 -73.73 44.6 -77.18 49.89 -76.99" stroke="#000" stroke-width=".5"/></g><g class="edge"><title>46-&gt;55</title><path d="m62.88-70.21c-1.56-1.25-7.19-5.77-11.43-9.17" stroke="#000" stroke-width=".5"/><polygon points="50.44 -77.94 47.64 -82.44 52.63 -80.67" stroke="#000" stroke-width=".5"/></g><g class="edge"><title>46-&gt;56</title><path d="m63.08-70.36c-0.82-1.83-3.78-8.41-6.01-13.36" stroke="#000" stroke-width=".5"/><polygon points="55.52 -82.91 55.07 -88.18 58.71 -84.34" stroke="#000" stroke-width=".5"/></g><g class="edge"><title>47-&gt;57</title><path d="m71.87-75c-1.89-0.66-8.71-3.04-13.84-4.83" stroke="#000" stroke-width=".5"/><polygon points="57.56 -78.14 53.42 -81.44 58.71 -81.44" stroke="#000" stroke-width=".5"/></g><g class="edge"><title>47-&gt;58</title><path d="m72.2-75c-1.01-1.05-6.38-6.64-10.36-10.78" stroke="#000" stroke-width=".5"/><polygon points="60.7 -84.44 58.49 -89.26 63.22 -86.87" stroke="#000" stroke-width=".5"/></g><g class="edge"><title>47-&gt;59</title><path d="m72.07-75.27c-1.11-1.66-5.13-7.66-8.15-12.17" stroke="#000" stroke-width=".5"/><polygon points="62.53 -86.38 61.2 -91.5 65.43 -88.32" stroke="#000" stroke-width=".5"/></g><g class="edge"><title>47-&gt;60</title><path d="m72.27-75.35c-0.4-1.96-1.83-9.04-2.91-14.36" stroke="#000" stroke-width=".5"/><polygon points="67.67 -89.26 68.39 -94.5 71.1 -89.95" stroke="#000" stroke-width=".5"/></g><g class="edge"><title>48-&gt;61</title><path d="m80.92-76.63c-1.51-1.32-6.95-6.06-11.05-9.63" stroke="#000" stroke-width=".5"/><polygon points="68.81 -84.86 66.18 -89.47 71.1 -87.5" stroke="#000" stroke-width=".5"/></g><g class="edge"><title>48-&gt;62</title><path d="m81.06-76.75c-0.98-1.74-4.5-8.04-7.15-12.78" stroke="#000" stroke-width=".5"/><polygon points="72.43 -88.58 71.52 -93.8 75.49 -90.29" stroke="#000" stroke-width=".5"/></g><g class="edge"><title>48-&gt;63</title><path d="m81.21-76.8c-0.42-1.96-1.95-9.01-3.09-14.32" stroke="#000" stroke-width=".5"/><polygon points="76.43 -90.65 77.08 -95.9 79.85 -91.39" stroke="#000" stroke-width=".5"/></g><g class="edge"><title>48-&gt;64</title><path d="m81.39-76.81c0.26-1.99 1.2-9.14 1.91-14.53" stroke="#000" stroke-width=".5"/><polygon points="81.55 -91.46 83.93 -96.19 85.02 -91" stroke="#000" stroke-width=".5"/></g><g class="edge"><title>3-&gt;45</title><path d="m80.84-47.91c-2.21-1.66-10.37-7.81-16.22-12.21" stroke="#000" stroke-width=".67"/><polygon points="63.6 -57.97 59.68 -63.85 66.41 -61.7" stroke="#000" stroke-width=".67"/></g><g class="edge"><title>3-&gt;46</title><path d="m80.96-48.04c-1.74-2.14-8.17-10.09-12.77-15.78" stroke="#000" stroke-width=".67"/><polygon points="66.68 -61.98 64.3 -68.63 70.31 -64.92" stroke="#000" stroke-width=".67"/></g><g class="edge"><title>3-&gt;47</title><path d="m81.18-48.16c-0.86-2.62-4.07-12.33-6.37-19.27" stroke="#000" stroke-width=".67"/><polygon points="72.75 -66.25 72.87 -73.31 77.18 -67.71" stroke="#000" stroke-width=".67"/></g><g class="edge"><title>3-&gt;48</title><path d="m81.41-48.19c-0.01-2.74-0.04-12.76-0.06-20.06" stroke="#000" stroke-width=".67"/><polygon points="79.01 -68.01 81.33 -74.68 83.68 -68.03" stroke="#000" stroke-width=".67"/></g><g class="edge"><title>65-&gt;69</title><path d="m72.25-67.4c-1.97 0.37-9.06 1.71-14.4 2.72" stroke="#000" stroke-width=".5"/><polygon points="58.28 -62.98 53.04 -63.77 57.63 -66.42" stroke="#000" stroke-width=".5"/></g><g class="edge"><title>65-&gt;70</title><path d="m72.26-67.67c-1.9-0.62-8.76-2.86-13.92-4.55" stroke="#000" stroke-width=".5"/><polygon points="57.9 -70.52 53.69 -73.74 58.98 -73.85" stroke="#000" stroke-width=".5"/></g><g class="edge"><title>65-&gt;71</title><path d="m72.34-67.82c-1.61-1.18-7.44-5.45-11.82-8.66" stroke="#000" stroke-width=".5"/><polygon points="59.58 -75 56.58 -79.37 61.65 -77.83" stroke="#000" stroke-width=".5"/></g><g class="edge"><title>65-&gt;72</title><path d="m72.42-67.91c-1.31-1.51-6.04-6.96-9.59-11.07" stroke="#000" stroke-width=".5"/><polygon points="61.58 -77.75 59.63 -82.68 64.22 -80.04" stroke="#000" stroke-width=".5"/></g><g class="edge"><title>66-&gt;73</title><path d="m81.96-74c-1.96-0.44-9-2.01-14.3-3.19" stroke="#000" stroke-width=".5"/><polygon points="67.39 -75.46 62.89 -78.26 68.15 -78.87" stroke="#000" stroke-width=".5"/></g><g class="edge"><title>66-&gt;74</title><path d="m82.06-74.22c-1.55-1.26-7.17-5.79-11.4-9.2" stroke="#000" stroke-width=".5"/><polygon points="69.65 -81.99 66.86 -86.49 71.85 -84.71" stroke="#000" stroke-width=".5"/></g><g class="edge"><title>66-&gt;75</title><path d="m82.22-74.35c-0.98-1.74-4.51-8.04-7.17-12.78" stroke="#000" stroke-width=".5"/><polygon points="73.58 -86.18 72.66 -91.39 76.63 -87.89" stroke="#000" stroke-width=".5"/></g><g class="edge"><title>66-&gt;76</title><path d="m82.36-74.4c-0.43-1.96-1.97-9.01-3.14-14.31" stroke="#000" stroke-width=".5"/><polygon points="77.53 -88.23 78.17 -93.49 80.95 -88.98" stroke="#000" stroke-width=".5"/></g><g class="edge"><title>67-&gt;77</title><path d="m94.55-76.27c-1.31-1.52-6.01-6.99-9.55-11.11" stroke="#000" stroke-width=".5"/><polygon points="83.75 -86.16 81.81 -91.09 86.4 -88.44" stroke="#000" stroke-width=".5"/></g><g class="edge"><title>67-&gt;78</title><path d="m94.69-76.36c-0.78-1.84-3.57-8.49-5.68-13.5" stroke="#000" stroke-width=".5"/><polygon points="87.44 -89.08 87.11 -94.37 90.67 -90.44" stroke="#000" stroke-width=".5"/></g><g class="edge"><title>67-&gt;79</title><path d="m94.88-76.4c-0.05-2-0.24-9.21-0.38-14.64" stroke="#000" stroke-width=".5"/><polygon points="92.75 -90.89 94.37 -95.93 96.25 -90.98" stroke="#000" stroke-width=".5"/></g><g class="edge"><title>67-&gt;80</title><path d="m94.99-76.39c0.35-1.97 1.61-9.07 2.56-14.42" stroke="#000" stroke-width=".5"/><polygon points="95.81 -91.01 98.41 -95.63 99.25 -90.4" stroke="#000" stroke-width=".5"/></g><g class="edge"><title>68-&gt;81</title><path d="m99.7-75.54c-1.04-1.71-4.8-7.87-7.63-12.51" stroke="#000" stroke-width=".5"/><polygon points="90.63 -87.04 89.52 -92.22 93.62 -88.87" stroke="#000" stroke-width=".5"/></g><g class="edge"><title>68-&gt;82</title><path d="m99.79-75.59c-0.73-1.86-3.34-8.59-5.3-13.65" stroke="#000" stroke-width=".5"/><polygon points="92.9 -88.51 92.72 -93.8 96.16 -89.77" stroke="#000" stroke-width=".5"/></g><g class="edge"><title>68-&gt;83</title><path d="m100.04-75.62c0.2-1.99 0.96-9.17 1.52-14.57" stroke="#000" stroke-width=".5"/><polygon points="99.81 -90.26 102.07 -95.05 103.29 -89.9" stroke="#000" stroke-width=".5"/></g><g class="edge"><title>68-&gt;84</title><path d="m100.23-75.56c0.93-1.77 4.3-8.15 6.84-12.96" stroke="#000" stroke-width=".5"/><polygon points="105.47 -89.24 109.35 -92.84 108.56 -87.6" stroke="#000" stroke-width=".5"/></g><g class="edge"><title>4-&gt;65</title><path d="m92.61-47.62c-1.95-1.96-9.17-9.19-14.34-14.37" stroke="#000" stroke-width=".67"/><polygon points="76.96 -60.01 73.9 -66.37 80.26 -63.3" stroke="#000" stroke-width=".67"/></g><g class="edge"><title>4-&gt;66</title><path d="m92.85-47.78c-1.02-2.57-4.79-12.07-7.5-18.87" stroke="#000" stroke-width=".67"/><polygon points="83.36 -65.34 83.07 -72.4 87.7 -67.06" stroke="#000" stroke-width=".67"/></g><g class="edge"><title>4-&gt;67</title><path d="m93.16-47.83c0.17-2.73 0.79-12.73 1.24-20.01" stroke="#000" stroke-width=".67"/><polygon points="92.06 -67.76 94.8 -74.27 96.71 -67.47" stroke="#000" stroke-width=".67"/></g><g class="edge"><title>4-&gt;68</title><path d="m93.28-47.81c0.66-2.68 3.1-12.61 4.84-19.72" stroke="#000" stroke-width=".67"/><polygon points="95.74 -67.62 99.6 -73.54 100.28 -66.51" stroke="#000" stroke-width=".67"/></g><g class="edge"><title>0-&gt;1</title><path d="m85.53-4.79c-2.49-1.72-16.09-11.08-25.64-17.65" stroke="#000"/><polygon points="58.2 -19.36 51.94 -27.91 62.17 -25.12" stroke="#000"/></g><g class="edge"><title>0-&gt;2</title><path d="m85.66-4.92c-1.7-2.5-10.98-16.17-17.48-25.75" stroke="#000"/><polygon points="65.48 -28.42 62.76 -38.65 71.27 -32.35" stroke="#000"/></g><g class="edge"><title>0-&gt;3</title><path d="m85.85-5.27c-0.38-3.59-2.04-19.41-3.22-30.62" stroke="#000"/><polygon points="79.18 -35.25 81.61 -45.57 86.14 -35.99" stroke="#000"/></g><g class="edge"><title>0-&gt;4</title><path d="m86.06-5.26c0.6-3.56 3.24-19.24 5.12-30.36" stroke="#000"/><polygon points="87.68 -35.94 92.79 -45.22 94.58 -34.78" stroke="#000"/></g></g><g class="graph" transform="matrix(.35393 0 0 -.35393 62.32 112.69)"><g class="edge"><title>4-&gt;7</title><path d="m22.74-19.87c-0.76 1.86-3.48 8.54-5.53 13.57" fill="none" stroke="#000" stroke-width=".5"/><polygon points="15.63 -7.06 18.87 -5.74 15.36 -1.77" stroke="#000" stroke-width=".5"/></g><g class="edge"><title>4-&gt;8</title><path d="m22.58-19.97c-1.36 1.47-6.27 6.76-9.97 10.74" fill="none" stroke="#000" stroke-width=".5"/><polygon points="11.41 -10.5 13.97 -8.12 9.29 -5.64" stroke="#000" stroke-width=".5"/></g><g class="edge"><title>4-&gt;9</title><path d="m22.41-20.3c-1.99 0.22-9.16 1.03-14.56 1.63" fill="none" stroke="#000" stroke-width=".5"/><polygon points="7.77 -20.42 8.16 -16.94 2.99 -18.12" stroke="#000" stroke-width=".5"/></g><g class="edge"><title>5-&gt;10</title><path d="m21.57-30.08c-1.47 1.36-6.77 6.26-10.75 9.96" fill="none" stroke="#000" stroke-width=".5"/><polygon points="9.71 -21.48 12.09 -18.92 7.23 -16.8" stroke="#000" stroke-width=".5"/></g><g class="edge"><title>5-&gt;11</title><path d="m21.43-30.44c-2-0.01-9.22-0.03-14.66-0.05" fill="none" stroke="#000" stroke-width=".5"/><polygon points="6.89 -32.24 6.88 -28.74 1.89 -30.51" stroke="#000" stroke-width=".5"/></g><g class="edge"><title>5-&gt;12</title><path d="m21.44-30.57c-1.94-0.48-8.95-2.2-14.22-3.5" fill="none" stroke="#000" stroke-width=".5"/><polygon points="7.74 -35.75 6.9 -32.35 2.47 -35.24" stroke="#000" stroke-width=".5"/></g><g class="edge"><title>6-&gt;13</title><path d="m29.26-48.19c-1.71-1.04-7.87-4.78-12.52-7.61" fill="none" stroke="#000" stroke-width=".5"/><polygon points="17.75 -57.24 15.93 -54.24 12.57 -58.34" stroke="#000" stroke-width=".5"/></g><g class="edge"><title>6-&gt;14</title><path d="m29.39-48.33c-1.23-1.57-5.69-7.25-9.04-11.53" fill="none" stroke="#000" stroke-width=".5"/><polygon points="21.8 -60.85 19.04 -58.7 17.34 -63.71" stroke="#000" stroke-width=".5"/></g><g class="edge"><title>1-&gt;4</title><path d="m49.98-27.95c-2.66 0.74-12.5 3.51-19.54 5.48" fill="none" stroke="#000" stroke-width=".67"/><polygon points="30.27 -24.84 31.53 -20.35 24.48 -20.79" stroke="#000" stroke-width=".67"/></g><g class="edge"><title>1-&gt;5</title><path d="m49.96-28.2c-2.72-0.22-12.72-1.02-19.99-1.6" fill="none" stroke="#000" stroke-width=".67"/><polygon points="30.38 -32.11 30.01 -27.46 23.55 -30.31" stroke="#000" stroke-width=".67"/></g><g class="edge"><title>1-&gt;6</title><path d="m50.15-28.63c-2.01-1.9-9.45-8.92-14.77-13.94" fill="none" stroke="#000" stroke-width=".67"/><polygon points="37.33 -43.94 34.13 -40.54 30.88 -46.81" stroke="#000" stroke-width=".67"/></g><g class="edge"><title>15-&gt;18</title><path d="m57.77-63.12c-1.92 0.56-8.86 2.54-14.08 4.04" fill="none" stroke="#000" stroke-width=".5"/><polygon points="43.31 -60.79 44.28 -57.43 38.99 -57.73" stroke="#000" stroke-width=".5"/></g><g class="edge"><title>15-&gt;19</title><path d="m57.76-63.36c-1.97-0.35-9.07-1.64-14.42-2.6" fill="none" stroke="#000" stroke-width=".5"/><polygon points="43.76 -67.66 43.14 -64.22 38.53 -66.83" stroke="#000" stroke-width=".5"/></g><g class="edge"><title>15-&gt;20</title><path d="m57.85-63.56c-1.66-1.13-7.63-5.18-12.13-8.23" fill="none" stroke="#000" stroke-width=".5"/><polygon points="46.8 -73.18 44.83 -70.28 41.68 -74.54" stroke="#000" stroke-width=".5"/></g><g class="edge"><title>16-&gt;21</title><path d="m60.71-66.27c-1.99 0.27-9.13 1.27-14.52 2.02" fill="none" stroke="#000" stroke-width=".5"/><polygon points="46.06 -66 46.55 -62.53 41.35 -63.58" stroke="#000" stroke-width=".5"/></g><g class="edge"><title>16-&gt;22</title><path d="m60.73-66.52c-1.89-0.65-8.72-3-13.85-4.77" fill="none" stroke="#000" stroke-width=".5"/><polygon points="47.55 -72.91 46.41 -69.6 42.25 -72.88" stroke="#000" stroke-width=".5"/></g><g class="edge"><title>16-&gt;23</title><path d="m60.82-66.68c-1.54-1.27-7.12-5.86-11.32-9.31" fill="none" stroke="#000" stroke-width=".5"/><polygon points="50.7 -77.27 48.48 -74.56 45.73 -79.09" stroke="#000" stroke-width=".5"/></g><g class="edge"><title>16-&gt;24</title><path d="m60.94-66.79c-1.13-1.65-5.17-7.63-8.22-12.13" fill="none" stroke="#000" stroke-width=".5"/><polygon points="54.23 -79.81 51.33 -77.84 49.98 -82.97" stroke="#000" stroke-width=".5"/></g><g class="edge"><title>17-&gt;25</title><path d="m79.5-74.22c-0.88-1.8-4.05-8.28-6.44-13.16" fill="none" stroke="#000" stroke-width=".5"/><polygon points="74.68 -88.05 71.53 -86.51 70.91 -91.77" stroke="#000" stroke-width=".5"/></g><g class="edge"><title>17-&gt;26</title><path d="m79.78-74.27c0.16-2 0.73-9.19 1.17-14.61" fill="none" stroke="#000" stroke-width=".5"/><polygon points="82.68 -88.63 79.19 -88.91 81.33 -93.75" stroke="#000" stroke-width=".5"/></g><g class="edge"><title>2-&gt;15</title><path d="m79.97-45.4c-2.14-1.76-10.03-8.26-15.67-12.91" fill="none" stroke="#000" stroke-width=".67"/><polygon points="66.15 -59.81 63.18 -56.21 59.52 -62.25" stroke="#000" stroke-width=".67"/></g><g class="edge"><title>2-&gt;16</title><path d="m80.04-45.48c-1.85-2.05-8.7-9.65-13.59-15.08" fill="none" stroke="#000" stroke-width=".67"/><polygon points="68.5 -61.77 65.03 -58.64 62.3 -65.16" stroke="#000" stroke-width=".67"/></g><g class="edge"><title>2-&gt;17</title><path d="m80.5-45.66c-0.08-2.73-0.35-12.75-0.54-20.05" fill="none" stroke="#000" stroke-width=".67"/><polygon points="82.29 -65.54 77.63 -65.42 79.78 -72.14" stroke="#000" stroke-width=".67"/></g><g class="edge"><title>27-&gt;29</title><path d="m90.17-73.91c-1.02-1.06-6.38-6.65-10.36-10.8" fill="none" stroke="#000" stroke-width=".5"/><polygon points="81.2 -85.79 78.67 -83.37 76.47 -88.19" stroke="#000" stroke-width=".5"/></g><g class="edge"><title>27-&gt;30</title><path d="m90.26-74.27c-0.27-1.98-1.23-9.13-1.96-14.52" fill="none" stroke="#000" stroke-width=".5"/><polygon points="90.05 -88.91 86.58 -88.44 87.65 -93.63" stroke="#000" stroke-width=".5"/></g><g class="edge"><title>27-&gt;31</title><path d="m90.46-74.26c0.46-1.95 2.12-8.97 3.36-14.26" fill="none" stroke="#000" stroke-width=".5"/><polygon points="95.5 -88.01 92.1 -88.81 94.95 -93.28" stroke="#000" stroke-width=".5"/></g><g class="edge"><title>28-&gt;32</title><path d="m94.86-73.61c-1.28-1.53-5.91-7.07-9.4-11.23" fill="none" stroke="#000" stroke-width=".5"/><polygon points="86.88 -85.88 84.19 -83.64 82.33 -88.59" stroke="#000" stroke-width=".5"/></g><g class="edge"><title>28-&gt;33</title><path d="m94.99-73.69c-0.8-1.83-3.68-8.45-5.85-13.43" fill="none" stroke="#000" stroke-width=".5"/><polygon points="90.79 -87.72 87.58 -86.32 87.19 -91.6" stroke="#000" stroke-width=".5"/></g><g class="edge"><title>28-&gt;34</title><path d="m95.2-73.73c0-2-0.03-9.22-0.05-14.65" fill="none" stroke="#000" stroke-width=".5"/><polygon points="96.9 -88.28 93.4 -88.26 95.13 -93.27" stroke="#000" stroke-width=".5"/></g><g class="edge"><title>3-&gt;27</title><path d="m89.61-45.66c0.07-2.73 0.33-12.75 0.52-20.04" fill="none" stroke="#000" stroke-width=".67"/><polygon points="92.45 -65.42 87.79 -65.54 90.29 -72.14" stroke="#000" stroke-width=".67"/></g><g class="edge"><title>3-&gt;28</title><path d="m89.73-45.65c0.54-2.68 2.49-12.51 3.91-19.66" fill="none" stroke="#000" stroke-width=".67"/><polygon points="95.88 -64.64 91.31 -65.55 94.89 -71.63" stroke="#000" stroke-width=".67"/></g><g class="edge"><title>0-&gt;1</title><path d="m84.66-2.28c-2.4-1.83-15.55-11.83-24.77-18.85" fill="none" stroke="#000"/><polygon points="62.29 -23.7 58.05 -18.13 52.21 -26.97" stroke="#000"/></g><g class="edge"><title>0-&gt;2</title><path d="m84.97-2.73c-0.38-3.6-2.05-19.41-3.23-30.63" fill="none" stroke="#000"/><polygon points="85.25 -33.46 78.29 -32.72 80.72 -43.03" stroke="#000"/></g><g class="edge"><title>0-&gt;3</title><path d="m85.13-2.73c0.38-3.6 2.05-19.41 3.24-30.63" fill="none" stroke="#000"/><polygon points="91.82 -32.72 84.86 -33.46 89.39 -43.03" stroke="#000"/></g></g><g inkscape:label="water-top"><rect x="50.957" y="113.29" width="57.56" height="28.457" fill="none" stroke="#000" stroke-linejoin="bevel" stroke-width=".368"/><rect x="50.957" y="113.29" width="57.56" height="28.457" fill="#9ddae5" opacity=".64835"/></g><g inkscape:label="waves"><path id="a" class="UnoptimicedTransforms" transform="matrix(.75223 0 0 .46234 40.902 76.254)" d="m38.251 87.106c0 0.0888-0.59923 0.21623-1.721 0.06081-1.1028-0.15278-2.6471-0.73457-4.2968-0.6896h-1e-6c-0.93414 0.0098-1.8506 0.26545-2.8875 0.54161-1.0368 0.27611-2.0508 0.52644-3.1303 0.5166-1.5007-0.02843-2.9663-0.4023-3.9067-0.664-0.64573-0.1786-1.1629-0.35195-1.5168-0.49058-0.19508-0.07641-0.34291-0.14316-0.44255-0.19814v-1e-6c-0.05202-0.02871-0.09071-0.05411-0.1161-0.07603-0.028-0.02434-0.03982-0.04344-0.03553-0.05895 0.0043-0.01549 0.02418-0.02566 0.06054-0.03221 0.03285-0.0058 0.07895-8e-3 0.13806-0.0067 0.11298 0.0025 0.27356 0.01777 0.47953 0.04405 0.38885 0.04962 0.89201 0.13176 1.5588 0.23614 0.92812 0.14428 2.4437 0.41513 3.7807 0.38752 0.93636-0.0099 1.8546-0.26668 2.8944-0.54358 1.0343-0.27542 2.0463-0.52464 3.1234-0.51487h1e-6c1.5714 0.03704 3.7129 0.83382 4.4055 1.0342 1.0277 0.29738 1.6123 0.36018 1.6123 0.45367z" fill="#fff" opacity=".6185" inkscape:tile-cx="10.260525" inkscape:tile-cy="38.311643" inkscape:tile-h="0.88672771" inkscape:tile-w="13.580945" inkscape:tile-x0="3.4700525" inkscape:tile-y0="37.868279"/><use transform="translate(15.911 1.6039)" inkscape:tiled-clone-of="#path20668-6" xlink:href="#a"/><use transform="translate(.31541 6.4279)" inkscape:tiled-clone-of="#path20668-6" xlink:href="#a"/><use transform="translate(22.187 4.6318)" inkscape:tiled-clone-of="#path20668-6" xlink:href="#a"/><use transform="translate(3.5746 11.733)" inkscape:tiled-clone-of="#path20668-6" xlink:href="#a"/><use transform="translate(33.292 6.9781)" inkscape:tiled-clone-of="#path20668-6" xlink:href="#a"/><use transform="translate(32.551 12.738)" inkscape:tiled-clone-of="#path20668-6" xlink:href="#a"/><use transform="translate(32.718 .62028)" inkscape:tiled-clone-of="#path20668-6" xlink:href="#a"/><use transform="translate(22.414 10.356)" inkscape:tiled-clone-of="#path20668-6" xlink:href="#a"/></g></g></svg>
