<?xml version="1.0" encoding="UTF-8" standalone="no"?>
<!DOCTYPE svg PUBLIC "-//W3C//DTD SVG 1.1//EN"
 "http://www.w3.org/Graphics/SVG/1.1/DTD/svg11.dtd">
<!-- Generated by graphviz version 12.2.1 (0)
 -->
<!-- Title: state transitions Pages: 1 -->
<svg width="200pt" height="107pt"
 viewBox="0.00 0.00 200.27 107.00" xmlns="http://www.w3.org/2000/svg" xmlns:xlink="http://www.w3.org/1999/xlink">
<g id="graph0" class="graph" transform="scale(1 1) rotate(0) translate(4 103)">
<title>state transitions</title>
<polygon fill="white" stroke="none" points="-4,4 -4,-103 196.27,-103 196.27,4 -4,4"/>
<g id="clust1" class="cluster state regular">
<title>cluster_glob</title>
<path fill="none" stroke="black" stroke-width="2" d="M20,-8C20,-8 172.27,-8 172.27,-8 178.27,-8 184.27,-14 184.27,-20 184.27,-20 184.27,-79 184.27,-79 184.27,-85 178.27,-91 172.27,-91 172.27,-91 20,-91 20,-91 14,-91 8,-85 8,-79 8,-79 8,-20 8,-20 8,-14 14,-8 20,-8"/>
<text text-anchor="start" x="84.79" y="-72.2" font-family="Helvetica,sans-Serif" font-size="12.00">glob</text>
</g>
<!-- glob -->
<!-- initial -->
<g id="node2" class="node state initial">
<title>initial</title>
<ellipse fill="black" stroke="black" stroke-width="2" cx="21.4" cy="-44" rx="5.4" ry="5.4"/>
</g>
<!-- abc -->
<g id="node3" class="node state regular">
<title>abc</title>
<polygon fill="#ffffff" fill-opacity="0.003922" stroke="none" stroke-width="2" points="130.36,-52.2 74.36,-52.2 74.36,-15.8 130.36,-15.8 130.36,-52.2"/>
<text text-anchor="start" x="92.68" y="-30.4" font-family="Helvetica,sans-Serif" font-size="12.00">abc</text>
<path fill="none" stroke="black" stroke-width="2" d="M86.82,-16.8C86.82,-16.8 117.89,-16.8 117.89,-16.8 123.62,-16.8 129.36,-22.53 129.36,-28.27 129.36,-28.27 129.36,-39.73 129.36,-39.73 129.36,-45.47 123.62,-51.2 117.89,-51.2 117.89,-51.2 86.82,-51.2 86.82,-51.2 81.09,-51.2 75.36,-45.47 75.36,-39.73 75.36,-39.73 75.36,-28.27 75.36,-28.27 75.36,-22.53 81.09,-16.8 86.82,-16.8"/>
</g>
<!-- initial&#45;&gt;abc -->
<g id="edge1" class="edge transition">
<title>initial&#45;&gt;abc</title>
<path fill="none" stroke="black" d="M27.58,-43.34C35,-42.4 49.31,-40.59 63.36,-38.81"/>
<polygon fill="black" stroke="black" points="63.46,-42.33 72.95,-37.6 62.58,-35.38 63.46,-42.33"/>
<text text-anchor="start" x="34.8" y="-45.32" font-family="Helvetica,sans-Serif" font-size="10.00">&quot;abc&quot; &#160;&#160;</text>
</g>
<!-- final -->
<g id="node4" class="node state final">
<title>final</title>
<ellipse fill="black" stroke="black" stroke-width="2" cx="166.87" cy="-38" rx="5.4" ry="5.4"/>
<ellipse fill="none" stroke="black" stroke-width="2" cx="166.87" cy="-38" rx="9.4" ry="9.4"/>
</g>
<!-- abc&#45;&gt;final -->
<g id="edge2" class="edge transition">
<title>abc&#45;&gt;final</title>
<path fill="none" stroke="black" d="M130.23,-35.72C135.22,-36.04 140.37,-36.37 145.14,-36.67"/>
<polygon fill="black" stroke="black" points="144.84,-40.16 155.04,-37.31 145.29,-33.18 144.84,-40.16"/>
<text text-anchor="start" x="138.36" y="-39.93" font-family="Helvetica,sans-Serif" font-size="10.00"> &#160;&#160;&#160;</text>
</g>
</g>
</svg>
