<?xml version="1.0" encoding="UTF-8" standalone="no"?>
<!DOCTYPE svg PUBLIC "-//W3C//DTD SVG 1.1//EN"
 "http://www.w3.org/Graphics/SVG/1.1/DTD/svg11.dtd">
<!-- Generated by graphviz version 12.2.0 (0)
 -->
<!-- Pages: 1 -->
<svg width="220pt" height="97pt"
 viewBox="0.00 0.00 219.85 97.00" xmlns="http://www.w3.org/2000/svg" xmlns:xlink="http://www.w3.org/1999/xlink">
<g id="graph0" class="graph" transform="scale(1 1) rotate(0) translate(4 93)">
<polygon fill="white" stroke="none" points="-4,4 -4,-93 215.85,-93 215.85,4 -4,4"/>
<g id="clust1" class="cluster">
<title>%3</title>
<path fill="white" stroke="black" stroke-width="2" d="M20,-8C20,-8 191.85,-8 191.85,-8 197.85,-8 203.85,-14 203.85,-20 203.85,-20 203.85,-69 203.85,-69 203.85,-75 197.85,-81 191.85,-81 191.85,-81 20,-81 20,-81 14,-81 8,-75 8,-69 8,-69 8,-20 8,-20 8,-14 14,-8 20,-8"/>
<text text-anchor="middle" x="105.93" y="-65.6" font-family="Helvetica,sans-Serif" font-size="12.00">glob</text>
</g>
<!-- initial -->
<g id="node1" class="node">
<title>initial</title>
<ellipse fill="black" stroke="black" stroke-width="2" cx="21.4" cy="-34" rx="5.4" ry="5.4"/>
</g>
<!-- abc -->
<g id="node3" class="node">
<title>abc</title>
<path fill="none" stroke="black" stroke-width="2" d="M128.05,-52C128.05,-52 98.05,-52 98.05,-52 92.05,-52 86.05,-46 86.05,-40 86.05,-40 86.05,-28 86.05,-28 86.05,-22 92.05,-16 98.05,-16 98.05,-16 128.05,-16 128.05,-16 134.05,-16 140.05,-22 140.05,-28 140.05,-28 140.05,-40 140.05,-40 140.05,-46 134.05,-52 128.05,-52"/>
<text text-anchor="middle" x="113.05" y="-28.98" font-family="Helvetica,sans-Serif" font-size="12.00">abc</text>
</g>
<!-- initial&#45;&gt;abc -->
<g id="edge1" class="edge">
<title>initial&#45;&gt;abc</title>
<path fill="none" stroke="black" d="M27.74,-34C36.83,-34 56.06,-34 73.87,-34"/>
<polygon fill="black" stroke="black" points="73.73,-37.5 83.73,-34 73.73,-30.5 73.73,-37.5"/>
<text text-anchor="middle" x="56.43" y="-35.75" font-family="Helvetica,sans-Serif" font-size="10.00">&quot;abc&quot;</text>
</g>
<!-- final -->
<g id="node2" class="node">
<title>final</title>
<ellipse fill="black" stroke="black" stroke-width="2" cx="186.45" cy="-34" rx="5.4" ry="5.4"/>
<ellipse fill="none" stroke="black" stroke-width="2" cx="186.45" cy="-34" rx="9.4" ry="9.4"/>
</g>
<!-- abc&#45;&gt;final -->
<g id="edge2" class="edge">
<title>abc&#45;&gt;final</title>
<path fill="none" stroke="black" d="M141.04,-34C148.84,-34 157.23,-34 164.59,-34"/>
<polygon fill="black" stroke="black" points="164.54,-37.5 174.54,-34 164.54,-30.5 164.54,-37.5"/>
</g>
</g>
</svg>
