<?xml version="1.0" encoding="UTF-8" standalone="no"?>
<!DOCTYPE svg PUBLIC "-//W3C//DTD SVG 1.1//EN"
 "http://www.w3.org/Graphics/SVG/1.1/DTD/svg11.dtd">
<!-- Generated by graphviz version 12.2.1 (0)
 -->
<!-- Title: state transitions Pages: 1 -->
<svg width="652pt" height="427pt"
 viewBox="0.00 0.00 651.93 427.00" xmlns="http://www.w3.org/2000/svg" xmlns:xlink="http://www.w3.org/1999/xlink">
<g id="graph0" class="graph" transform="scale(1 1) rotate(0) translate(4 423)">
<title>state transitions</title>
<polygon fill="white" stroke="none" points="-4,4 -4,-423 647.93,-423 647.93,4 -4,4"/>
<g id="clust1" class="cluster state parallel">
<title>cluster_match.parallel</title>
<path fill="none" stroke="black" stroke-width="2" d="M84.23,-8C84.23,-8 623.93,-8 623.93,-8 629.93,-8 635.93,-14 635.93,-20 635.93,-20 635.93,-399 635.93,-399 635.93,-405 629.93,-411 623.93,-411 623.93,-411 84.23,-411 84.23,-411 78.23,-411 72.23,-405 72.23,-399 72.23,-399 72.23,-20 72.23,-20 72.23,-14 78.23,-8 84.23,-8"/>
<text text-anchor="start" x="316.73" y="-392.2" font-family="Helvetica,sans-Serif" font-size="12.00">match.parallel</text>
</g>
<g id="clust2" class="cluster state regular">
<title>cluster_pattern</title>
<polygon fill="none" stroke="black" stroke-dasharray="5,2" points="80.23,-165 80.23,-364 468.7,-364 468.7,-165 80.23,-165"/>
<text text-anchor="start" x="255.79" y="-345.2" font-family="Helvetica,sans-Serif" font-size="12.00">pattern</text>
</g>
<g id="clust3" class="cluster state regular">
<title>cluster_query</title>
<polygon fill="none" stroke="black" stroke-dasharray="5,2" points="80.23,-16 80.23,-157 627.93,-157 627.93,-16 80.23,-16"/>
<text text-anchor="start" x="339.07" y="-138.2" font-family="Helvetica,sans-Serif" font-size="12.00">query</text>
</g>
<!-- initial -->
<g id="node1" class="node state initial">
<title>initial</title>
<ellipse fill="black" stroke="black" stroke-width="2" cx="5.4" cy="-157" rx="5.4" ry="5.4"/>
</g>
<!-- ]in -->
<g id="node2" class="node state fork">
<title>]in</title>
<polygon fill="black" stroke="black" stroke-width="2" points="45.11,-175 37.91,-175 37.91,-139 45.11,-139 45.11,-175"/>
<text text-anchor="middle" x="41.51" y="-153.4" font-family="Helvetica,sans-Serif" font-size="12.00"> </text>
</g>
<!-- initial&#45;&gt;]in -->
<g id="edge1" class="edge transition">
<title>initial&#45;&gt;]in</title>
<path fill="none" stroke="black" d="M11.73,-157C15.47,-157 20.68,-157 25.63,-157"/>
<polygon fill="black" stroke="black" points="25.48,-160.5 35.48,-157 25.48,-153.5 25.48,-160.5"/>
<text text-anchor="start" x="18.8" y="-160" font-family="Helvetica,sans-Serif" font-size="10.00"> &#160;&#160;&#160;</text>
</g>
<!-- ]p.in -->
<g id="node12" class="node state initial">
<title>]p.in</title>
<ellipse fill="black" stroke="black" stroke-width="2" cx="93.63" cy="-207" rx="5.4" ry="5.4"/>
</g>
<!-- ]in&#45;&gt;]p.in -->
<g id="edge16" class="edge transition">
<title>]in&#45;&gt;]p.in</title>
<path fill="none" stroke="black" d="M45.92,-160.69C51.38,-166.57 62.46,-178.37 72.23,-188 74.73,-190.46 77.45,-193.06 80.06,-195.51"/>
<polygon fill="black" stroke="black" points="77.66,-198.05 87.39,-202.26 82.4,-192.91 77.66,-198.05"/>
<text text-anchor="start" x="53.11" y="-182.63" font-family="Helvetica,sans-Serif" font-size="10.00"> &#160;&#160;&#160;</text>
</g>
<!-- ]q.in -->
<g id="node20" class="node state initial">
<title>]q.in</title>
<ellipse fill="black" stroke="black" stroke-width="2" cx="93.63" cy="-109" rx="5.4" ry="5.4"/>
</g>
<!-- ]in&#45;&gt;]q.in -->
<g id="edge17" class="edge transition">
<title>]in&#45;&gt;]q.in</title>
<path fill="none" stroke="black" d="M45.8,-153.85C52.74,-147.2 69.19,-131.45 80.62,-120.5"/>
<polygon fill="black" stroke="black" points="82.82,-123.24 87.62,-113.79 77.98,-118.18 82.82,-123.24"/>
<text text-anchor="start" x="53.11" y="-149.63" font-family="Helvetica,sans-Serif" font-size="10.00"> &#160;&#160;&#160;</text>
</g>
<!-- match.parallel -->
<!-- pattern -->
<!-- p.usr -->
<g id="node5" class="node state regular">
<title>p.usr</title>
<polygon fill="#ffffff" fill-opacity="0.003922" stroke="none" stroke-width="2" points="200.35,-225.2 144.35,-225.2 144.35,-188.8 200.35,-188.8 200.35,-225.2"/>
<text text-anchor="start" x="164.02" y="-203.4" font-family="Helvetica,sans-Serif" font-size="12.00">usr</text>
<path fill="none" stroke="black" stroke-width="2" d="M156.82,-189.8C156.82,-189.8 187.89,-189.8 187.89,-189.8 193.62,-189.8 199.35,-195.53 199.35,-201.27 199.35,-201.27 199.35,-212.73 199.35,-212.73 199.35,-218.47 193.62,-224.2 187.89,-224.2 187.89,-224.2 156.82,-224.2 156.82,-224.2 151.09,-224.2 145.35,-218.47 145.35,-212.73 145.35,-212.73 145.35,-201.27 145.35,-201.27 145.35,-195.53 151.09,-189.8 156.82,-189.8"/>
</g>
<!-- p.bin -->
<g id="node6" class="node state regular">
<title>p.bin</title>
<polygon fill="#ffffff" fill-opacity="0.003922" stroke="none" stroke-width="2" points="341.91,-209.2 285.91,-209.2 285.91,-172.8 341.91,-172.8 341.91,-209.2"/>
<text text-anchor="start" x="305.91" y="-187.4" font-family="Helvetica,sans-Serif" font-size="12.00">bin</text>
<path fill="none" stroke="black" stroke-width="2" d="M298.38,-173.8C298.38,-173.8 329.45,-173.8 329.45,-173.8 335.18,-173.8 340.91,-179.53 340.91,-185.27 340.91,-185.27 340.91,-196.73 340.91,-196.73 340.91,-202.47 335.18,-208.2 329.45,-208.2 329.45,-208.2 298.38,-208.2 298.38,-208.2 292.65,-208.2 286.91,-202.47 286.91,-196.73 286.91,-196.73 286.91,-185.27 286.91,-185.27 286.91,-179.53 292.65,-173.8 298.38,-173.8"/>
</g>
<!-- p.usr&#45;&gt;p.bin -->
<g id="edge2" class="edge transition">
<title>p.usr&#45;&gt;p.bin</title>
<path fill="none" stroke="black" d="M200.09,-203.08C202.88,-202.7 205.67,-202.33 208.35,-202 230.36,-199.27 255.02,-196.66 274.87,-194.66"/>
<polygon fill="black" stroke="black" points="275.12,-198.15 284.73,-193.68 274.43,-191.19 275.12,-198.15"/>
<text text-anchor="start" x="223.91" y="-205" font-family="Helvetica,sans-Serif" font-size="10.00">&quot;bin&quot; &#160;&#160;</text>
</g>
<!-- p.sbin -->
<g id="node7" class="node state regular">
<title>p.sbin</title>
<polygon fill="#ffffff" fill-opacity="0.003922" stroke="none" stroke-width="2" points="341.91,-267.2 285.91,-267.2 285.91,-230.8 341.91,-230.8 341.91,-267.2"/>
<text text-anchor="start" x="302.91" y="-245.4" font-family="Helvetica,sans-Serif" font-size="12.00">sbin</text>
<path fill="none" stroke="black" stroke-width="2" d="M298.38,-231.8C298.38,-231.8 329.45,-231.8 329.45,-231.8 335.18,-231.8 340.91,-237.53 340.91,-243.27 340.91,-243.27 340.91,-254.73 340.91,-254.73 340.91,-260.47 335.18,-266.2 329.45,-266.2 329.45,-266.2 298.38,-266.2 298.38,-266.2 292.65,-266.2 286.91,-260.47 286.91,-254.73 286.91,-254.73 286.91,-243.27 286.91,-243.27 286.91,-237.53 292.65,-231.8 298.38,-231.8"/>
</g>
<!-- p.usr&#45;&gt;p.sbin -->
<g id="edge3" class="edge transition">
<title>p.usr&#45;&gt;p.sbin</title>
<path fill="none" stroke="black" d="M200.26,-215.1C221.6,-221.52 251.66,-230.57 275.36,-237.7"/>
<polygon fill="black" stroke="black" points="274.05,-240.96 284.64,-240.49 276.07,-234.26 274.05,-240.96"/>
<text text-anchor="start" x="221.41" y="-238.41" font-family="Helvetica,sans-Serif" font-size="10.00">&quot;sbin&quot; &#160;&#160;</text>
</g>
<!-- p.bash -->
<g id="node8" class="node state regular">
<title>p.bash</title>
<path fill="none" stroke="black" stroke-width="2" d="M448.7,-211.2C448.7,-211.2 416.7,-211.2 416.7,-211.2 410.7,-211.2 404.7,-205.2 404.7,-199.2 404.7,-199.2 404.7,-186.8 404.7,-186.8 404.7,-180.8 410.7,-174.8 416.7,-174.8 416.7,-174.8 448.7,-174.8 448.7,-174.8 454.7,-174.8 460.7,-180.8 460.7,-186.8 460.7,-186.8 460.7,-199.2 460.7,-199.2 460.7,-205.2 454.7,-211.2 448.7,-211.2"/>
<text text-anchor="start" x="419.69" y="-190.4" font-family="Helvetica,sans-Serif" font-style="italic" font-size="12.00">bash</text>
<path fill="none" stroke="black" stroke-width="2" d="M417.17,-175.8C417.17,-175.8 448.24,-175.8 448.24,-175.8 453.97,-175.8 459.7,-181.53 459.7,-187.27 459.7,-187.27 459.7,-198.73 459.7,-198.73 459.7,-204.47 453.97,-210.2 448.24,-210.2 448.24,-210.2 417.17,-210.2 417.17,-210.2 411.44,-210.2 405.7,-204.47 405.7,-198.73 405.7,-198.73 405.7,-187.27 405.7,-187.27 405.7,-181.53 411.44,-175.8 417.17,-175.8"/>
</g>
<!-- p.bin&#45;&gt;p.bash -->
<g id="edge4" class="edge transition">
<title>p.bin&#45;&gt;p.bash</title>
<path fill="none" stroke="black" d="M341.71,-191.46C356.81,-191.72 375.95,-192.05 392.69,-192.33"/>
<polygon fill="black" stroke="black" points="392.24,-195.82 402.3,-192.5 392.36,-188.83 392.24,-195.82"/>
<text text-anchor="start" x="359.58" y="-195.35" font-family="Helvetica,sans-Serif" font-size="10.00">&quot;bash&quot; &#160;&#160;</text>
</g>
<!-- p.cron -->
<g id="node9" class="node state regular">
<title>p.cron</title>
<path fill="none" stroke="black" stroke-width="2" d="M448.7,-269.2C448.7,-269.2 416.7,-269.2 416.7,-269.2 410.7,-269.2 404.7,-263.2 404.7,-257.2 404.7,-257.2 404.7,-244.8 404.7,-244.8 404.7,-238.8 410.7,-232.8 416.7,-232.8 416.7,-232.8 448.7,-232.8 448.7,-232.8 454.7,-232.8 460.7,-238.8 460.7,-244.8 460.7,-244.8 460.7,-257.2 460.7,-257.2 460.7,-263.2 454.7,-269.2 448.7,-269.2"/>
<text text-anchor="start" x="421.03" y="-248.4" font-family="Helvetica,sans-Serif" font-style="italic" font-size="12.00">cron</text>
<path fill="none" stroke="black" stroke-width="2" d="M417.17,-233.8C417.17,-233.8 448.24,-233.8 448.24,-233.8 453.97,-233.8 459.7,-239.53 459.7,-245.27 459.7,-245.27 459.7,-256.73 459.7,-256.73 459.7,-262.47 453.97,-268.2 448.24,-268.2 448.24,-268.2 417.17,-268.2 417.17,-268.2 411.44,-268.2 405.7,-262.47 405.7,-256.73 405.7,-256.73 405.7,-245.27 405.7,-245.27 405.7,-239.53 411.44,-233.8 417.17,-233.8"/>
</g>
<!-- p.sbin&#45;&gt;p.cron -->
<g id="edge5" class="edge transition">
<title>p.sbin&#45;&gt;p.cron</title>
<path fill="none" stroke="black" d="M341.71,-249.46C356.81,-249.72 375.95,-250.05 392.69,-250.33"/>
<polygon fill="black" stroke="black" points="392.24,-253.82 402.3,-250.5 392.36,-246.83 392.24,-253.82"/>
<text text-anchor="start" x="360.7" y="-253.35" font-family="Helvetica,sans-Serif" font-size="10.00">&quot;cron&quot; &#160;&#160;</text>
</g>
<!-- p.* -->
<g id="node10" class="node state regular">
<title>p.*</title>
<polygon fill="#ffffff" fill-opacity="0.003922" stroke="none" stroke-width="2" points="200.35,-289.2 144.35,-289.2 144.35,-252.8 200.35,-252.8 200.35,-289.2"/>
<text text-anchor="start" x="170.02" y="-267.4" font-family="Helvetica,sans-Serif" font-size="12.00">*</text>
<path fill="none" stroke="black" stroke-width="2" d="M156.82,-253.8C156.82,-253.8 187.89,-253.8 187.89,-253.8 193.62,-253.8 199.35,-259.53 199.35,-265.27 199.35,-265.27 199.35,-276.73 199.35,-276.73 199.35,-282.47 193.62,-288.2 187.89,-288.2 187.89,-288.2 156.82,-288.2 156.82,-288.2 151.09,-288.2 145.35,-282.47 145.35,-276.73 145.35,-276.73 145.35,-265.27 145.35,-265.27 145.35,-259.53 151.09,-253.8 156.82,-253.8"/>
</g>
<!-- p.*&#45;&gt;p.* -->
<g id="edge7" class="edge transition">
<title>p.*&#45;&gt;p.*</title>
<path fill="none" stroke="black" d="M163.52,-289.19C161.39,-300.47 164.34,-311.2 172.35,-311.2 177.49,-311.2 180.54,-306.8 181.51,-300.66"/>
<polygon fill="black" stroke="black" points="185.01,-300.6 181.23,-290.7 178.01,-300.8 185.01,-300.6"/>
<text text-anchor="start" x="160.12" y="-314.2" font-family="Helvetica,sans-Serif" font-size="10.00">any &#160;&#160;</text>
</g>
<!-- p.trie_match -->
<g id="node11" class="node state regular">
<title>p.trie_match</title>
<path fill="none" stroke="black" stroke-width="2" d="M339.58,-325.2C339.58,-325.2 288.24,-325.2 288.24,-325.2 282.24,-325.2 276.24,-319.2 276.24,-313.2 276.24,-313.2 276.24,-300.8 276.24,-300.8 276.24,-294.8 282.24,-288.8 288.24,-288.8 288.24,-288.8 339.58,-288.8 339.58,-288.8 345.58,-288.8 351.58,-294.8 351.58,-300.8 351.58,-300.8 351.58,-313.2 351.58,-313.2 351.58,-319.2 345.58,-325.2 339.58,-325.2"/>
<text text-anchor="start" x="287.24" y="-304.4" font-family="Helvetica,sans-Serif" font-style="italic" font-size="12.00">trie&#45;match</text>
<path fill="none" stroke="black" stroke-width="2" d="M288.71,-289.8C288.71,-289.8 339.12,-289.8 339.12,-289.8 344.85,-289.8 350.58,-295.53 350.58,-301.27 350.58,-301.27 350.58,-312.73 350.58,-312.73 350.58,-318.47 344.85,-324.2 339.12,-324.2 339.12,-324.2 288.71,-324.2 288.71,-324.2 282.97,-324.2 277.24,-318.47 277.24,-312.73 277.24,-312.73 277.24,-301.27 277.24,-301.27 277.24,-295.53 282.97,-289.8 288.71,-289.8"/>
</g>
<!-- p.*&#45;&gt;p.trie_match -->
<g id="edge6" class="edge transition">
<title>p.*&#45;&gt;p.trie_match</title>
<path fill="none" stroke="black" d="M200.26,-277.94C218.41,-282.62 242.86,-288.93 264.35,-294.47"/>
<polygon fill="black" stroke="black" points="263.25,-297.8 273.81,-296.91 265,-291.03 263.25,-297.8"/>
<text text-anchor="start" x="208.35" y="-298.36" font-family="Helvetica,sans-Serif" font-size="10.00">&quot;trie&#45;match&quot; &#160;&#160;</text>
</g>
<!-- ]p.in&#45;&gt;p.usr -->
<g id="edge8" class="edge transition">
<title>]p.in&#45;&gt;p.usr</title>
<path fill="none" stroke="black" d="M99.9,-207C106.97,-207 120.16,-207 133.3,-207"/>
<polygon fill="black" stroke="black" points="133.17,-210.5 143.17,-207 133.17,-203.5 133.17,-210.5"/>
<text text-anchor="start" x="107.03" y="-210" font-family="Helvetica,sans-Serif" font-size="10.00">&quot;usr&quot; &#160;&#160;</text>
</g>
<!-- ]p.in&#45;&gt;p.* -->
<g id="edge9" class="edge transition">
<title>]p.in&#45;&gt;p.*</title>
<path fill="none" stroke="black" d="M97.54,-211.78C99.85,-215.37 103.31,-220.28 107.03,-224 115.46,-232.44 125.51,-240.53 135.13,-247.54"/>
<polygon fill="black" stroke="black" points="133.11,-250.4 143.3,-253.3 137.15,-244.68 133.11,-250.4"/>
<text text-anchor="start" x="109.46" y="-250.73" font-family="Helvetica,sans-Serif" font-size="10.00">any &#160;&#160;</text>
</g>
<!-- query -->
<!-- q.usr -->
<g id="node14" class="node state regular">
<title>q.usr</title>
<polygon fill="#ffffff" fill-opacity="0.003922" stroke="none" stroke-width="2" points="200.35,-118.2 144.35,-118.2 144.35,-81.8 200.35,-81.8 200.35,-118.2"/>
<text text-anchor="start" x="164.02" y="-96.4" font-family="Helvetica,sans-Serif" font-size="12.00">usr</text>
<path fill="none" stroke="black" stroke-width="2" d="M156.82,-82.8C156.82,-82.8 187.89,-82.8 187.89,-82.8 193.62,-82.8 199.35,-88.53 199.35,-94.27 199.35,-94.27 199.35,-105.73 199.35,-105.73 199.35,-111.47 193.62,-117.2 187.89,-117.2 187.89,-117.2 156.82,-117.2 156.82,-117.2 151.09,-117.2 145.35,-111.47 145.35,-105.73 145.35,-105.73 145.35,-94.27 145.35,-94.27 145.35,-88.53 151.09,-82.8 156.82,-82.8"/>
</g>
<!-- q.bin -->
<g id="node15" class="node state regular">
<title>q.bin</title>
<polygon fill="#ffffff" fill-opacity="0.003922" stroke="none" stroke-width="2" points="341.91,-60.2 285.91,-60.2 285.91,-23.8 341.91,-23.8 341.91,-60.2"/>
<text text-anchor="start" x="305.91" y="-38.4" font-family="Helvetica,sans-Serif" font-size="12.00">bin</text>
<path fill="none" stroke="black" stroke-width="2" d="M298.38,-24.8C298.38,-24.8 329.45,-24.8 329.45,-24.8 335.18,-24.8 340.91,-30.53 340.91,-36.27 340.91,-36.27 340.91,-47.73 340.91,-47.73 340.91,-53.47 335.18,-59.2 329.45,-59.2 329.45,-59.2 298.38,-59.2 298.38,-59.2 292.65,-59.2 286.91,-53.47 286.91,-47.73 286.91,-47.73 286.91,-36.27 286.91,-36.27 286.91,-30.53 292.65,-24.8 298.38,-24.8"/>
</g>
<!-- q.usr&#45;&gt;q.bin -->
<g id="edge10" class="edge transition">
<title>q.usr&#45;&gt;q.bin</title>
<path fill="none" stroke="black" d="M200.01,-86.79C202.81,-85.48 205.63,-84.19 208.35,-83 230.35,-73.36 255.39,-63.51 275.45,-55.87"/>
<polygon fill="black" stroke="black" points="276.5,-59.22 284.61,-52.41 274.02,-52.67 276.5,-59.22"/>
<text text-anchor="start" x="223.91" y="-86" font-family="Helvetica,sans-Serif" font-size="10.00">&quot;bin&quot; &#160;&#160;</text>
</g>
<!-- q.local -->
<g id="node16" class="node state regular">
<title>q.local</title>
<polygon fill="#ffffff" fill-opacity="0.003922" stroke="none" stroke-width="2" points="341.91,-118.2 285.91,-118.2 285.91,-81.8 341.91,-81.8 341.91,-118.2"/>
<text text-anchor="start" x="301.57" y="-96.4" font-family="Helvetica,sans-Serif" font-size="12.00">local</text>
<path fill="none" stroke="black" stroke-width="2" d="M298.38,-82.8C298.38,-82.8 329.45,-82.8 329.45,-82.8 335.18,-82.8 340.91,-88.53 340.91,-94.27 340.91,-94.27 340.91,-105.73 340.91,-105.73 340.91,-111.47 335.18,-117.2 329.45,-117.2 329.45,-117.2 298.38,-117.2 298.38,-117.2 292.65,-117.2 286.91,-111.47 286.91,-105.73 286.91,-105.73 286.91,-94.27 286.91,-94.27 286.91,-88.53 292.65,-82.8 298.38,-82.8"/>
</g>
<!-- q.usr&#45;&gt;q.local -->
<g id="edge11" class="edge transition">
<title>q.usr&#45;&gt;q.local</title>
<path fill="none" stroke="black" d="M200.26,-100C221.4,-100 251.12,-100 274.72,-100"/>
<polygon fill="black" stroke="black" points="274.57,-103.5 284.57,-100 274.57,-96.5 274.57,-103.5"/>
<text text-anchor="start" x="220.3" y="-103" font-family="Helvetica,sans-Serif" font-size="10.00">&quot;local&quot; &#160;&#160;</text>
</g>
<!-- q.bash -->
<g id="node17" class="node state regular">
<title>q.bash</title>
<path fill="none" stroke="black" stroke-width="2" d="M448.7,-60.2C448.7,-60.2 416.7,-60.2 416.7,-60.2 410.7,-60.2 404.7,-54.2 404.7,-48.2 404.7,-48.2 404.7,-35.8 404.7,-35.8 404.7,-29.8 410.7,-23.8 416.7,-23.8 416.7,-23.8 448.7,-23.8 448.7,-23.8 454.7,-23.8 460.7,-29.8 460.7,-35.8 460.7,-35.8 460.7,-48.2 460.7,-48.2 460.7,-54.2 454.7,-60.2 448.7,-60.2"/>
<text text-anchor="start" x="419.69" y="-39.4" font-family="Helvetica,sans-Serif" font-style="italic" font-size="12.00">bash</text>
<path fill="none" stroke="black" stroke-width="2" d="M417.17,-24.8C417.17,-24.8 448.24,-24.8 448.24,-24.8 453.97,-24.8 459.7,-30.53 459.7,-36.27 459.7,-36.27 459.7,-47.73 459.7,-47.73 459.7,-53.47 453.97,-59.2 448.24,-59.2 448.24,-59.2 417.17,-59.2 417.17,-59.2 411.44,-59.2 405.7,-53.47 405.7,-47.73 405.7,-47.73 405.7,-36.27 405.7,-36.27 405.7,-30.53 411.44,-24.8 417.17,-24.8"/>
</g>
<!-- q.bin&#45;&gt;q.bash -->
<g id="edge12" class="edge transition">
<title>q.bin&#45;&gt;q.bash</title>
<path fill="none" stroke="black" d="M341.71,-42C356.81,-42 375.95,-42 392.69,-42"/>
<polygon fill="black" stroke="black" points="392.3,-45.5 402.3,-42 392.3,-38.5 392.3,-45.5"/>
<text text-anchor="start" x="359.58" y="-45" font-family="Helvetica,sans-Serif" font-size="10.00">&quot;bash&quot; &#160;&#160;</text>
</g>
<!-- q.lbin -->
<g id="node18" class="node state regular">
<title>q.lbin</title>
<polygon fill="#ffffff" fill-opacity="0.003922" stroke="none" stroke-width="2" points="460.7,-118.2 404.7,-118.2 404.7,-81.8 460.7,-81.8 460.7,-118.2"/>
<text text-anchor="start" x="424.7" y="-96.4" font-family="Helvetica,sans-Serif" font-size="12.00">bin</text>
<path fill="none" stroke="black" stroke-width="2" d="M417.17,-82.8C417.17,-82.8 448.24,-82.8 448.24,-82.8 453.97,-82.8 459.7,-88.53 459.7,-94.27 459.7,-94.27 459.7,-105.73 459.7,-105.73 459.7,-111.47 453.97,-117.2 448.24,-117.2 448.24,-117.2 417.17,-117.2 417.17,-117.2 411.44,-117.2 405.7,-111.47 405.7,-105.73 405.7,-105.73 405.7,-94.27 405.7,-94.27 405.7,-88.53 411.44,-82.8 417.17,-82.8"/>
</g>
<!-- q.local&#45;&gt;q.lbin -->
<g id="edge13" class="edge transition">
<title>q.local&#45;&gt;q.lbin</title>
<path fill="none" stroke="black" d="M341.71,-100C357.14,-100 376.78,-100 393.78,-100"/>
<polygon fill="black" stroke="black" points="393.52,-103.5 403.52,-100 393.52,-96.5 393.52,-103.5"/>
<text text-anchor="start" x="363.75" y="-103" font-family="Helvetica,sans-Serif" font-size="10.00">&quot;bin&quot; &#160;&#160;</text>
</g>
<!-- q.trie_match -->
<g id="node19" class="node state regular">
<title>q.trie_match</title>
<path fill="none" stroke="black" stroke-width="2" d="M607.93,-118.2C607.93,-118.2 556.59,-118.2 556.59,-118.2 550.59,-118.2 544.59,-112.2 544.59,-106.2 544.59,-106.2 544.59,-93.8 544.59,-93.8 544.59,-87.8 550.59,-81.8 556.59,-81.8 556.59,-81.8 607.93,-81.8 607.93,-81.8 613.93,-81.8 619.93,-87.8 619.93,-93.8 619.93,-93.8 619.93,-106.2 619.93,-106.2 619.93,-112.2 613.93,-118.2 607.93,-118.2"/>
<text text-anchor="start" x="555.59" y="-97.4" font-family="Helvetica,sans-Serif" font-style="italic" font-size="12.00">trie&#45;match</text>
<path fill="none" stroke="black" stroke-width="2" d="M557.06,-82.8C557.06,-82.8 607.47,-82.8 607.47,-82.8 613.2,-82.8 618.93,-88.53 618.93,-94.27 618.93,-94.27 618.93,-105.73 618.93,-105.73 618.93,-111.47 613.2,-117.2 607.47,-117.2 607.47,-117.2 557.06,-117.2 557.06,-117.2 551.32,-117.2 545.59,-111.47 545.59,-105.73 545.59,-105.73 545.59,-94.27 545.59,-94.27 545.59,-88.53 551.32,-82.8 557.06,-82.8"/>
</g>
<!-- q.lbin&#45;&gt;q.trie_match -->
<g id="edge14" class="edge transition">
<title>q.lbin&#45;&gt;q.trie_match</title>
<path fill="none" stroke="black" d="M460.43,-100C480.41,-100 508.3,-100 532.25,-100"/>
<polygon fill="black" stroke="black" points="532.13,-103.5 542.13,-100 532.13,-96.5 532.13,-103.5"/>
<text text-anchor="start" x="476.7" y="-103" font-family="Helvetica,sans-Serif" font-size="10.00">&quot;trie&#45;match&quot; &#160;&#160;</text>
</g>
<!-- ]q.in&#45;&gt;q.usr -->
<g id="edge15" class="edge transition">
<title>]q.in&#45;&gt;q.usr</title>
<path fill="none" stroke="black" d="M99.9,-108.38C106.97,-107.55 120.16,-106 133.3,-104.46"/>
<polygon fill="black" stroke="black" points="133.65,-107.95 143.18,-103.3 132.84,-100.99 133.65,-107.95"/>
<text text-anchor="start" x="107.03" y="-110.49" font-family="Helvetica,sans-Serif" font-size="10.00">&quot;usr&quot; &#160;&#160;</text>
</g>
</g>
</svg>
