<?xml version="1.0" encoding="UTF-8" standalone="no"?>
<!DOCTYPE svg PUBLIC "-//W3C//DTD SVG 1.1//EN"
 "http://www.w3.org/Graphics/SVG/1.1/DTD/svg11.dtd">
<!-- Generated by graphviz version 12.2.0 (0)
 -->
<!-- Pages: 1 -->
<svg width="637pt" height="377pt"
 viewBox="0.00 0.00 637.10 377.00" xmlns="http://www.w3.org/2000/svg" xmlns:xlink="http://www.w3.org/1999/xlink">
<g id="graph0" class="graph" transform="scale(1 1) rotate(0) translate(4 373)">
<polygon fill="white" stroke="none" points="-4,4 -4,-373 633.1,-373 633.1,4 -4,4"/>
<g id="clust1" class="cluster">
<title>%3</title>
<path fill="white" stroke="black" stroke-width="2" d="M49.8,-8C49.8,-8 609.1,-8 609.1,-8 615.1,-8 621.1,-14 621.1,-20 621.1,-20 621.1,-349 621.1,-349 621.1,-355 615.1,-361 609.1,-361 609.1,-361 49.8,-361 49.8,-361 43.8,-361 37.8,-355 37.8,-349 37.8,-349 37.8,-20 37.8,-20 37.8,-14 43.8,-8 49.8,-8"/>
<text text-anchor="middle" x="329.45" y="-345.6" font-family="Helvetica,sans-Serif" font-size="12.00">matching by parallel simulation</text>
</g>
<g id="clust2" class="cluster">
<title>%5</title>
<polygon fill="white" stroke="black" stroke-width="2" stroke-dasharray="5,2" points="45.8,-151 45.8,-332 457.6,-332 457.6,-151 45.8,-151"/>
<text text-anchor="middle" x="251.7" y="-316.6" font-family="Helvetica,sans-Serif" font-size="12.00">pattern</text>
</g>
<g id="clust3" class="cluster">
<title>%23</title>
<polygon fill="white" stroke="black" stroke-width="2" stroke-dasharray="5,2" points="45.8,-16 45.8,-143 613.1,-143 613.1,-16 45.8,-16"/>
<text text-anchor="middle" x="329.45" y="-127.6" font-family="Helvetica,sans-Serif" font-size="12.00">query</text>
</g>
<!-- initial -->
<g id="node1" class="node">
<title>initial</title>
<ellipse fill="black" stroke="black" stroke-width="2" cx="5.4" cy="-144" rx="5.4" ry="5.4"/>
</g>
<!-- p_in -->
<g id="node2" class="node">
<title>p_in</title>
<ellipse fill="black" stroke="black" stroke-width="2" cx="59.2" cy="-188" rx="5.4" ry="5.4"/>
</g>
<!-- initial&#45;&gt;p_in -->
<g id="edge15" class="edge">
<title>initial&#45;&gt;p_in</title>
<path fill="none" stroke="black" d="M10.46,-147.45C17.92,-153.78 34.05,-167.49 45.5,-177.21"/>
<polygon fill="black" stroke="black" points="42.97,-179.65 52.86,-183.46 47.5,-174.32 42.97,-179.65"/>
</g>
<!-- q_in -->
<g id="node10" class="node">
<title>q_in</title>
<ellipse fill="black" stroke="black" stroke-width="2" cx="59.2" cy="-104" rx="5.4" ry="5.4"/>
</g>
<!-- initial&#45;&gt;q_in -->
<g id="edge16" class="edge">
<title>initial&#45;&gt;q_in</title>
<path fill="none" stroke="black" d="M10.46,-140.86C17.84,-135.16 33.73,-122.9 45.15,-114.08"/>
<polygon fill="black" stroke="black" points="47.04,-117.04 52.81,-108.16 42.76,-111.5 47.04,-117.04"/>
</g>
<!-- p_usr -->
<g id="node3" class="node">
<title>p_usr</title>
<path fill="none" stroke="black" stroke-width="2" d="M163.6,-206C163.6,-206 133.6,-206 133.6,-206 127.6,-206 121.6,-200 121.6,-194 121.6,-194 121.6,-182 121.6,-182 121.6,-176 127.6,-170 133.6,-170 133.6,-170 163.6,-170 163.6,-170 169.6,-170 175.6,-176 175.6,-182 175.6,-182 175.6,-194 175.6,-194 175.6,-200 169.6,-206 163.6,-206"/>
<text text-anchor="middle" x="148.6" y="-182.97" font-family="Helvetica,sans-Serif" font-size="12.00">usr</text>
</g>
<!-- p_in&#45;&gt;p_usr -->
<g id="edge4" class="edge">
<title>p_in&#45;&gt;p_usr</title>
<path fill="none" stroke="black" d="M65.41,-188C74.06,-188 92.16,-188 109.18,-188"/>
<polygon fill="black" stroke="black" points="109.14,-191.5 119.14,-188 109.14,-184.5 109.14,-191.5"/>
<text text-anchor="middle" x="93.1" y="-189.75" font-family="Helvetica,sans-Serif" font-size="10.00">&quot;usr&quot;</text>
</g>
<!-- p_* -->
<g id="node9" class="node">
<title>p_*</title>
<path fill="none" stroke="black" stroke-width="2" d="M163.6,-267C163.6,-267 133.6,-267 133.6,-267 127.6,-267 121.6,-261 121.6,-255 121.6,-255 121.6,-243 121.6,-243 121.6,-237 127.6,-231 133.6,-231 133.6,-231 163.6,-231 163.6,-231 169.6,-231 175.6,-237 175.6,-243 175.6,-243 175.6,-255 175.6,-255 175.6,-261 169.6,-267 163.6,-267"/>
<text text-anchor="middle" x="148.6" y="-243.97" font-family="Helvetica,sans-Serif" font-size="12.00">*</text>
</g>
<!-- p_in&#45;&gt;p_* -->
<g id="edge1" class="edge">
<title>p_in&#45;&gt;p_*</title>
<path fill="none" stroke="black" d="M64.42,-190.94C72.95,-196.9 93.03,-210.91 111.32,-223.68"/>
<polygon fill="black" stroke="black" points="109.21,-226.47 119.41,-229.33 113.21,-220.73 109.21,-226.47"/>
<text text-anchor="middle" x="93.1" y="-218.42" font-family="Helvetica,sans-Serif" font-size="10.00">any</text>
</g>
<!-- p_bin -->
<g id="node4" class="node">
<title>p_bin</title>
<path fill="none" stroke="black" stroke-width="2" d="M311.85,-195C311.85,-195 281.85,-195 281.85,-195 275.85,-195 269.85,-189 269.85,-183 269.85,-183 269.85,-171 269.85,-171 269.85,-165 275.85,-159 281.85,-159 281.85,-159 311.85,-159 311.85,-159 317.85,-159 323.85,-165 323.85,-171 323.85,-171 323.85,-183 323.85,-183 323.85,-189 317.85,-195 311.85,-195"/>
<text text-anchor="middle" x="296.85" y="-171.97" font-family="Helvetica,sans-Serif" font-size="12.00">bin</text>
</g>
<!-- p_usr&#45;&gt;p_bin -->
<g id="edge7" class="edge">
<title>p_usr&#45;&gt;p_bin</title>
<path fill="none" stroke="black" d="M176.42,-185.98C199.31,-184.26 232.47,-181.77 258.04,-179.84"/>
<polygon fill="black" stroke="black" points="257.98,-183.36 267.69,-179.12 257.45,-176.38 257.98,-183.36"/>
<text text-anchor="middle" x="219.1" y="-186.19" font-family="Helvetica,sans-Serif" font-size="10.00">&quot;bin&quot;</text>
</g>
<!-- p_sbin -->
<g id="node5" class="node">
<title>p_sbin</title>
<path fill="none" stroke="black" stroke-width="2" d="M311.85,-249C311.85,-249 281.85,-249 281.85,-249 275.85,-249 269.85,-243 269.85,-237 269.85,-237 269.85,-225 269.85,-225 269.85,-219 275.85,-213 281.85,-213 281.85,-213 311.85,-213 311.85,-213 317.85,-213 323.85,-219 323.85,-225 323.85,-225 323.85,-237 323.85,-237 323.85,-243 317.85,-249 311.85,-249"/>
<text text-anchor="middle" x="296.85" y="-225.97" font-family="Helvetica,sans-Serif" font-size="12.00">sbin</text>
</g>
<!-- p_usr&#45;&gt;p_sbin -->
<g id="edge5" class="edge">
<title>p_usr&#45;&gt;p_sbin</title>
<path fill="none" stroke="black" d="M176.42,-195.89C199.41,-202.65 232.77,-212.45 258.39,-219.99"/>
<polygon fill="black" stroke="black" points="257.16,-223.27 267.74,-222.74 259.14,-216.56 257.16,-223.27"/>
<text text-anchor="middle" x="219.1" y="-217.61" font-family="Helvetica,sans-Serif" font-size="10.00">&quot;sbin&quot;</text>
</g>
<!-- p_bash -->
<g id="node6" class="node">
<title>p_bash</title>
<path fill="none" stroke="black" stroke-width="5" d="M437.6,-195C437.6,-195 407.6,-195 407.6,-195 401.6,-195 395.6,-189 395.6,-183 395.6,-183 395.6,-171 395.6,-171 395.6,-165 401.6,-159 407.6,-159 407.6,-159 437.6,-159 437.6,-159 443.6,-159 449.6,-165 449.6,-171 449.6,-171 449.6,-183 449.6,-183 449.6,-189 443.6,-195 437.6,-195"/>
<text text-anchor="middle" x="422.6" y="-171.97" font-family="Helvetica,sans-Serif" font-size="12.00">bash</text>
</g>
<!-- p_bin&#45;&gt;p_bash -->
<g id="edge8" class="edge">
<title>p_bin&#45;&gt;p_bash</title>
<path fill="none" stroke="black" d="M324.7,-177C341.46,-177 363.33,-177 382.04,-177"/>
<polygon fill="black" stroke="black" points="382,-180.5 392,-177 382,-173.5 382,-180.5"/>
<text text-anchor="middle" x="363.35" y="-178.75" font-family="Helvetica,sans-Serif" font-size="10.00">&quot;bash&quot;</text>
</g>
<!-- p_cron -->
<g id="node7" class="node">
<title>p_cron</title>
<path fill="none" stroke="black" stroke-width="5" d="M437.6,-249C437.6,-249 407.6,-249 407.6,-249 401.6,-249 395.6,-243 395.6,-237 395.6,-237 395.6,-225 395.6,-225 395.6,-219 401.6,-213 407.6,-213 407.6,-213 437.6,-213 437.6,-213 443.6,-213 449.6,-219 449.6,-225 449.6,-225 449.6,-237 449.6,-237 449.6,-243 443.6,-249 437.6,-249"/>
<text text-anchor="middle" x="422.6" y="-225.97" font-family="Helvetica,sans-Serif" font-size="12.00">cron</text>
</g>
<!-- p_sbin&#45;&gt;p_cron -->
<g id="edge6" class="edge">
<title>p_sbin&#45;&gt;p_cron</title>
<path fill="none" stroke="black" d="M324.7,-231C341.46,-231 363.33,-231 382.04,-231"/>
<polygon fill="black" stroke="black" points="382,-234.5 392,-231 382,-227.5 382,-234.5"/>
<text text-anchor="middle" x="363.35" y="-232.75" font-family="Helvetica,sans-Serif" font-size="10.00">&quot;cron&quot;</text>
</g>
<!-- p_trie&#45;match -->
<g id="node8" class="node">
<title>p_trie&#45;match</title>
<path fill="none" stroke="black" stroke-width="5" d="M319.1,-303C319.1,-303 274.6,-303 274.6,-303 268.6,-303 262.6,-297 262.6,-291 262.6,-291 262.6,-279 262.6,-279 262.6,-273 268.6,-267 274.6,-267 274.6,-267 319.1,-267 319.1,-267 325.1,-267 331.1,-273 331.1,-279 331.1,-279 331.1,-291 331.1,-291 331.1,-297 325.1,-303 319.1,-303"/>
<text text-anchor="middle" x="296.85" y="-279.98" font-family="Helvetica,sans-Serif" font-size="12.00">trie&#45;match</text>
</g>
<!-- p_*&#45;&gt;p_trie&#45;match -->
<g id="edge3" class="edge">
<title>p_*&#45;&gt;p_trie&#45;match</title>
<path fill="none" stroke="black" d="M176.42,-255.6C196.78,-260.61 225.28,-267.63 249.33,-273.55"/>
<polygon fill="black" stroke="black" points="248.35,-276.91 258.9,-275.9 250.03,-270.12 248.35,-276.91"/>
<text text-anchor="middle" x="219.1" y="-274.08" font-family="Helvetica,sans-Serif" font-size="10.00">&quot;trie&#45;match&quot;</text>
</g>
<!-- p_*&#45;&gt;p_* -->
<g id="edge2" class="edge">
<title>p_*&#45;&gt;p_*</title>
<path fill="none" stroke="black" d="M138.45,-267.89C137.19,-276.98 140.58,-285 148.6,-285 152.86,-285 155.81,-282.74 157.46,-279.25"/>
<polygon fill="black" stroke="black" points="160.93,-279.73 158.58,-269.4 153.97,-278.93 160.93,-279.73"/>
<text text-anchor="middle" x="148.6" y="-286.75" font-family="Helvetica,sans-Serif" font-size="10.00">any</text>
</g>
<!-- q_usr -->
<g id="node11" class="node">
<title>q_usr</title>
<path fill="none" stroke="black" stroke-width="2" d="M163.6,-114C163.6,-114 133.6,-114 133.6,-114 127.6,-114 121.6,-108 121.6,-102 121.6,-102 121.6,-90 121.6,-90 121.6,-84 127.6,-78 133.6,-78 133.6,-78 163.6,-78 163.6,-78 169.6,-78 175.6,-84 175.6,-90 175.6,-90 175.6,-102 175.6,-102 175.6,-108 169.6,-114 163.6,-114"/>
<text text-anchor="middle" x="148.6" y="-90.97" font-family="Helvetica,sans-Serif" font-size="12.00">usr</text>
</g>
<!-- q_in&#45;&gt;q_usr -->
<g id="edge9" class="edge">
<title>q_in&#45;&gt;q_usr</title>
<path fill="none" stroke="black" d="M65.41,-103.52C74.15,-102.72 92.51,-101.04 109.67,-99.47"/>
<polygon fill="black" stroke="black" points="109.51,-103 119.15,-98.6 108.87,-96.03 109.51,-103"/>
<text text-anchor="middle" x="93.1" y="-103.6" font-family="Helvetica,sans-Serif" font-size="10.00">&quot;usr&quot;</text>
</g>
<!-- q_bin -->
<g id="node12" class="node">
<title>q_bin</title>
<path fill="none" stroke="black" stroke-width="2" d="M311.85,-60C311.85,-60 281.85,-60 281.85,-60 275.85,-60 269.85,-54 269.85,-48 269.85,-48 269.85,-36 269.85,-36 269.85,-30 275.85,-24 281.85,-24 281.85,-24 311.85,-24 311.85,-24 317.85,-24 323.85,-30 323.85,-36 323.85,-36 323.85,-48 323.85,-48 323.85,-54 317.85,-60 311.85,-60"/>
<text text-anchor="middle" x="296.85" y="-36.98" font-family="Helvetica,sans-Serif" font-size="12.00">bin</text>
</g>
<!-- q_usr&#45;&gt;q_bin -->
<g id="edge10" class="edge">
<title>q_usr&#45;&gt;q_bin</title>
<path fill="none" stroke="black" d="M176.42,-86.1C199.51,-77.57 233.07,-65.18 258.73,-55.71"/>
<polygon fill="black" stroke="black" points="259.61,-59.11 267.78,-52.37 257.18,-52.55 259.61,-59.11"/>
<text text-anchor="middle" x="219.1" y="-80.28" font-family="Helvetica,sans-Serif" font-size="10.00">&quot;bin&quot;</text>
</g>
<!-- q_local -->
<g id="node14" class="node">
<title>q_local</title>
<path fill="none" stroke="black" stroke-width="2" d="M311.85,-114C311.85,-114 281.85,-114 281.85,-114 275.85,-114 269.85,-108 269.85,-102 269.85,-102 269.85,-90 269.85,-90 269.85,-84 275.85,-78 281.85,-78 281.85,-78 311.85,-78 311.85,-78 317.85,-78 323.85,-84 323.85,-90 323.85,-90 323.85,-102 323.85,-102 323.85,-108 317.85,-114 311.85,-114"/>
<text text-anchor="middle" x="296.85" y="-90.97" font-family="Helvetica,sans-Serif" font-size="12.00">local</text>
</g>
<!-- q_usr&#45;&gt;q_local -->
<g id="edge12" class="edge">
<title>q_usr&#45;&gt;q_local</title>
<path fill="none" stroke="black" d="M176.42,-96C199.2,-96 232.17,-96 257.7,-96"/>
<polygon fill="black" stroke="black" points="257.68,-99.5 267.68,-96 257.68,-92.5 257.68,-99.5"/>
<text text-anchor="middle" x="219.1" y="-97.75" font-family="Helvetica,sans-Serif" font-size="10.00">&quot;local&quot;</text>
</g>
<!-- q_bash -->
<g id="node13" class="node">
<title>q_bash</title>
<path fill="none" stroke="black" stroke-width="5" d="M437.6,-60C437.6,-60 407.6,-60 407.6,-60 401.6,-60 395.6,-54 395.6,-48 395.6,-48 395.6,-36 395.6,-36 395.6,-30 401.6,-24 407.6,-24 407.6,-24 437.6,-24 437.6,-24 443.6,-24 449.6,-30 449.6,-36 449.6,-36 449.6,-48 449.6,-48 449.6,-54 443.6,-60 437.6,-60"/>
<text text-anchor="middle" x="422.6" y="-36.98" font-family="Helvetica,sans-Serif" font-size="12.00">bash</text>
</g>
<!-- q_bin&#45;&gt;q_bash -->
<g id="edge11" class="edge">
<title>q_bin&#45;&gt;q_bash</title>
<path fill="none" stroke="black" d="M324.7,-42C341.46,-42 363.33,-42 382.04,-42"/>
<polygon fill="black" stroke="black" points="382,-45.5 392,-42 382,-38.5 382,-45.5"/>
<text text-anchor="middle" x="363.35" y="-43.75" font-family="Helvetica,sans-Serif" font-size="10.00">&quot;bash&quot;</text>
</g>
<!-- q_lbin -->
<g id="node16" class="node">
<title>q_lbin</title>
<path fill="none" stroke="black" stroke-width="2" d="M437.6,-114C437.6,-114 407.6,-114 407.6,-114 401.6,-114 395.6,-108 395.6,-102 395.6,-102 395.6,-90 395.6,-90 395.6,-84 401.6,-78 407.6,-78 407.6,-78 437.6,-78 437.6,-78 443.6,-78 449.6,-84 449.6,-90 449.6,-90 449.6,-102 449.6,-102 449.6,-108 443.6,-114 437.6,-114"/>
<text text-anchor="middle" x="422.6" y="-90.97" font-family="Helvetica,sans-Serif" font-size="12.00">bin</text>
</g>
<!-- q_local&#45;&gt;q_lbin -->
<g id="edge14" class="edge">
<title>q_local&#45;&gt;q_lbin</title>
<path fill="none" stroke="black" d="M324.7,-96C341.89,-96 364.46,-96 383.49,-96"/>
<polygon fill="black" stroke="black" points="383.29,-99.5 393.29,-96 383.29,-92.5 383.29,-99.5"/>
<text text-anchor="middle" x="363.35" y="-97.75" font-family="Helvetica,sans-Serif" font-size="10.00">&quot;bin&quot;</text>
</g>
<!-- q_trie&#45;match -->
<g id="node15" class="node">
<title>q_trie&#45;match</title>
<path fill="none" stroke="black" stroke-width="5" d="M593.1,-114C593.1,-114 548.6,-114 548.6,-114 542.6,-114 536.6,-108 536.6,-102 536.6,-102 536.6,-90 536.6,-90 536.6,-84 542.6,-78 548.6,-78 548.6,-78 593.1,-78 593.1,-78 599.1,-78 605.1,-84 605.1,-90 605.1,-90 605.1,-102 605.1,-102 605.1,-108 599.1,-114 593.1,-114"/>
<text text-anchor="middle" x="570.85" y="-90.97" font-family="Helvetica,sans-Serif" font-size="12.00">trie&#45;match</text>
</g>
<!-- q_lbin&#45;&gt;q_trie&#45;match -->
<g id="edge13" class="edge">
<title>q_lbin&#45;&gt;q_trie&#45;match</title>
<path fill="none" stroke="black" d="M450.42,-96C470.69,-96 499.02,-96 523,-96"/>
<polygon fill="black" stroke="black" points="522.86,-99.5 532.86,-96 522.86,-92.5 522.86,-99.5"/>
<text text-anchor="middle" x="493.1" y="-97.75" font-family="Helvetica,sans-Serif" font-size="10.00">&quot;trie&#45;match&quot;</text>
</g>
</g>
</svg>
