<?xml version="1.0" encoding="UTF-8" standalone="no"?>
<!DOCTYPE svg PUBLIC "-//W3C//DTD SVG 1.1//EN"
 "http://www.w3.org/Graphics/SVG/1.1/DTD/svg11.dtd">
<!-- Generated by graphviz version 12.2.0 (0)
 -->
<!-- Pages: 1 -->
<svg width="212pt" height="126pt"
 viewBox="0.00 0.00 212.35 126.00" xmlns="http://www.w3.org/2000/svg" xmlns:xlink="http://www.w3.org/1999/xlink">
<g id="graph0" class="graph" transform="scale(1 1) rotate(0) translate(4 122)">
<polygon fill="white" stroke="none" points="-4,4 -4,-122 208.35,-122 208.35,4 -4,4"/>
<g id="clust1" class="cluster">
<title>%3</title>
<path fill="white" stroke="black" stroke-width="2" d="M20,-8C20,-8 184.35,-8 184.35,-8 190.35,-8 196.35,-14 196.35,-20 196.35,-20 196.35,-98 196.35,-98 196.35,-104 190.35,-110 184.35,-110 184.35,-110 20,-110 20,-110 14,-110 8,-104 8,-98 8,-98 8,-20 8,-20 8,-14 14,-8 20,-8"/>
<text text-anchor="middle" x="102.18" y="-94.6" font-family="Helvetica,sans-Serif" font-size="12.00">plus</text>
</g>
<!-- initial -->
<g id="node1" class="node">
<title>initial</title>
<ellipse fill="black" stroke="black" stroke-width="2" cx="21.4" cy="-34" rx="5.4" ry="5.4"/>
</g>
<!-- * -->
<g id="node3" class="node">
<title>*</title>
<path fill="none" stroke="black" stroke-width="2" d="M120.55,-52C120.55,-52 90.55,-52 90.55,-52 84.55,-52 78.55,-46 78.55,-40 78.55,-40 78.55,-28 78.55,-28 78.55,-22 84.55,-16 90.55,-16 90.55,-16 120.55,-16 120.55,-16 126.55,-16 132.55,-22 132.55,-28 132.55,-28 132.55,-40 132.55,-40 132.55,-46 126.55,-52 120.55,-52"/>
<text text-anchor="middle" x="105.55" y="-28.98" font-family="Helvetica,sans-Serif" font-size="12.00">*</text>
</g>
<!-- initial&#45;&gt;* -->
<g id="edge1" class="edge">
<title>initial&#45;&gt;*</title>
<path fill="none" stroke="black" d="M27.79,-34C35.75,-34 51.36,-34 66.42,-34"/>
<polygon fill="black" stroke="black" points="66.19,-37.5 76.19,-34 66.19,-30.5 66.19,-37.5"/>
<text text-anchor="middle" x="52.68" y="-35.75" font-family="Helvetica,sans-Serif" font-size="10.00">any</text>
</g>
<!-- final -->
<g id="node2" class="node">
<title>final</title>
<ellipse fill="black" stroke="black" stroke-width="2" cx="178.95" cy="-34" rx="5.4" ry="5.4"/>
<ellipse fill="none" stroke="black" stroke-width="2" cx="178.95" cy="-34" rx="9.4" ry="9.4"/>
</g>
<!-- *&#45;&gt;final -->
<g id="edge3" class="edge">
<title>*&#45;&gt;final</title>
<path fill="none" stroke="black" d="M133.54,-34C141.34,-34 149.73,-34 157.09,-34"/>
<polygon fill="black" stroke="black" points="157.04,-37.5 167.04,-34 157.04,-30.5 157.04,-37.5"/>
</g>
<!-- *&#45;&gt;* -->
<g id="edge2" class="edge">
<title>*&#45;&gt;*</title>
<path fill="none" stroke="black" d="M97.23,-52.89C96.2,-61.98 98.97,-70 105.55,-70 109.04,-70 111.46,-67.74 112.81,-64.25"/>
<polygon fill="black" stroke="black" points="116.29,-64.68 113.73,-54.4 109.32,-64.03 116.29,-64.68"/>
<text text-anchor="middle" x="105.55" y="-71.75" font-family="Helvetica,sans-Serif" font-size="10.00">any</text>
</g>
</g>
</svg>
