<?xml version="1.0" encoding="UTF-8" standalone="no"?>
<!DOCTYPE svg PUBLIC "-//W3C//DTD SVG 1.1//EN"
 "http://www.w3.org/Graphics/SVG/1.1/DTD/svg11.dtd">
<!-- Generated by graphviz version 12.2.1 (0)
 -->
<!-- Title: state transitions Pages: 1 -->
<svg width="193pt" height="137pt"
 viewBox="0.00 0.00 193.17 137.00" xmlns="http://www.w3.org/2000/svg" xmlns:xlink="http://www.w3.org/1999/xlink">
<g id="graph0" class="graph" transform="scale(1 1) rotate(0) translate(4 133)">
<title>state transitions</title>
<polygon fill="white" stroke="none" points="-4,4 -4,-133 189.17,-133 189.17,4 -4,4"/>
<g id="clust1" class="cluster state regular">
<title>cluster_plus</title>
<path fill="none" stroke="black" stroke-width="2" d="M20,-8C20,-8 165.17,-8 165.17,-8 171.17,-8 177.17,-14 177.17,-20 177.17,-20 177.17,-109 177.17,-109 177.17,-115 171.17,-121 165.17,-121 165.17,-121 20,-121 20,-121 14,-121 8,-115 8,-109 8,-109 8,-20 8,-20 8,-14 14,-8 20,-8"/>
<text text-anchor="start" x="81.58" y="-102.2" font-family="Helvetica,sans-Serif" font-size="12.00">plus</text>
</g>
<!-- plus -->
<!-- initial -->
<g id="node2" class="node state initial">
<title>initial</title>
<ellipse fill="black" stroke="black" stroke-width="2" cx="21.4" cy="-44" rx="5.4" ry="5.4"/>
</g>
<!-- * -->
<g id="node3" class="node state regular">
<title>*</title>
<polygon fill="#ffffff" fill-opacity="0.003922" stroke="none" stroke-width="2" points="123.26,-52.2 67.26,-52.2 67.26,-15.8 123.26,-15.8 123.26,-52.2"/>
<text text-anchor="start" x="92.92" y="-30.4" font-family="Helvetica,sans-Serif" font-size="12.00">*</text>
<path fill="none" stroke="black" stroke-width="2" d="M79.72,-16.8C79.72,-16.8 110.79,-16.8 110.79,-16.8 116.52,-16.8 122.26,-22.53 122.26,-28.27 122.26,-28.27 122.26,-39.73 122.26,-39.73 122.26,-45.47 116.52,-51.2 110.79,-51.2 110.79,-51.2 79.72,-51.2 79.72,-51.2 73.99,-51.2 68.26,-45.47 68.26,-39.73 68.26,-39.73 68.26,-28.27 68.26,-28.27 68.26,-22.53 73.99,-16.8 79.72,-16.8"/>
</g>
<!-- initial&#45;&gt;* -->
<g id="edge1" class="edge transition">
<title>initial&#45;&gt;*</title>
<path fill="none" stroke="black" d="M27.57,-43.28C33.79,-42.41 44.84,-40.88 56.17,-39.3"/>
<polygon fill="black" stroke="black" points="56.51,-42.79 65.93,-37.94 55.55,-35.85 56.51,-42.79"/>
<text text-anchor="start" x="34.8" y="-45.09" font-family="Helvetica,sans-Serif" font-size="10.00">any &#160;&#160;</text>
</g>
<!-- *&#45;&gt;* -->
<g id="edge2" class="edge transition">
<title>*&#45;&gt;*</title>
<path fill="none" stroke="black" d="M88.02,-52.19C86.27,-63.47 88.68,-74.2 95.26,-74.2 99.47,-74.2 101.97,-69.8 102.77,-63.66"/>
<polygon fill="black" stroke="black" points="106.27,-63.62 102.54,-53.7 99.27,-63.78 106.27,-63.62"/>
<text text-anchor="start" x="83.03" y="-77.2" font-family="Helvetica,sans-Serif" font-size="10.00">any &#160;&#160;</text>
</g>
<!-- final -->
<g id="node4" class="node state final">
<title>final</title>
<ellipse fill="black" stroke="black" stroke-width="2" cx="159.77" cy="-38" rx="5.4" ry="5.4"/>
<ellipse fill="none" stroke="black" stroke-width="2" cx="159.77" cy="-38" rx="9.4" ry="9.4"/>
</g>
<!-- *&#45;&gt;final -->
<g id="edge3" class="edge transition">
<title>*&#45;&gt;final</title>
<path fill="none" stroke="black" d="M123.13,-35.72C128.12,-36.04 133.27,-36.37 138.04,-36.67"/>
<polygon fill="black" stroke="black" points="137.74,-40.16 147.94,-37.31 138.19,-33.18 137.74,-40.16"/>
<text text-anchor="start" x="131.26" y="-39.93" font-family="Helvetica,sans-Serif" font-size="10.00"> &#160;&#160;&#160;</text>
</g>
</g>
</svg>
