<?xml version="1.0" encoding="UTF-8" standalone="no"?>
<!DOCTYPE svg PUBLIC "-//W3C//DTD SVG 1.1//EN"
 "http://www.w3.org/Graphics/SVG/1.1/DTD/svg11.dtd">
<!-- Generated by graphviz version 12.2.1 (0)
 -->
<!-- Title: state transitions Pages: 1 -->
<svg width="226pt" height="165pt"
 viewBox="0.00 0.00 226.35 165.00" xmlns="http://www.w3.org/2000/svg" xmlns:xlink="http://www.w3.org/1999/xlink">
<g id="graph0" class="graph" transform="scale(1 1) rotate(0) translate(4 161)">
<title>state transitions</title>
<polygon fill="white" stroke="none" points="-4,4 -4,-161 222.35,-161 222.35,4 -4,4"/>
<g id="clust1" class="cluster state regular">
<title>cluster_simple_tree</title>
<path fill="none" stroke="black" stroke-width="2" d="M20,-8C20,-8 198.35,-8 198.35,-8 204.35,-8 210.35,-14 210.35,-20 210.35,-20 210.35,-137 210.35,-137 210.35,-143 204.35,-149 198.35,-149 198.35,-149 20,-149 20,-149 14,-149 8,-143 8,-137 8,-137 8,-20 8,-20 8,-14 14,-8 20,-8"/>
<text text-anchor="start" x="87.17" y="-130.2" font-family="Helvetica,sans-Serif" font-size="12.00">**.x, **.y</text>
</g>
<!-- simple_tree -->
<!-- initial -->
<g id="node2" class="node state initial">
<title>initial</title>
<ellipse fill="black" stroke="black" stroke-width="2" cx="21.4" cy="-50" rx="5.4" ry="5.4"/>
</g>
<!-- ** -->
<g id="node3" class="node state regular">
<title>**</title>
<polygon fill="#ffffff" fill-opacity="0.003922" stroke="none" stroke-width="2" points="109.91,-68.2 53.91,-68.2 53.91,-31.8 109.91,-31.8 109.91,-68.2"/>
<text text-anchor="start" x="77.24" y="-46.4" font-family="Helvetica,sans-Serif" font-size="12.00">**</text>
<path fill="none" stroke="black" stroke-width="2" d="M66.38,-32.8C66.38,-32.8 97.45,-32.8 97.45,-32.8 103.18,-32.8 108.91,-38.53 108.91,-44.27 108.91,-44.27 108.91,-55.73 108.91,-55.73 108.91,-61.47 103.18,-67.2 97.45,-67.2 97.45,-67.2 66.38,-67.2 66.38,-67.2 60.65,-67.2 54.91,-61.47 54.91,-55.73 54.91,-55.73 54.91,-44.27 54.91,-44.27 54.91,-38.53 60.65,-32.8 66.38,-32.8"/>
</g>
<!-- initial&#45;&gt;** -->
<g id="edge1" class="edge transition">
<title>initial&#45;&gt;**</title>
<path fill="none" stroke="black" d="M27.8,-50C31.49,-50 36.74,-50 42.53,-50"/>
<polygon fill="black" stroke="black" points="42.52,-53.5 52.52,-50 42.52,-46.5 42.52,-53.5"/>
<text text-anchor="start" x="34.8" y="-53" font-family="Helvetica,sans-Serif" font-size="10.00"> &#160;&#160;&#160;</text>
</g>
<!-- **&#45;&gt;** -->
<g id="edge2" class="edge transition">
<title>**&#45;&gt;**</title>
<path fill="none" stroke="black" d="M74.67,-68.19C72.92,-79.47 75.34,-90.2 81.91,-90.2 86.13,-90.2 88.63,-85.8 89.43,-79.66"/>
<polygon fill="black" stroke="black" points="92.93,-79.62 89.19,-69.7 85.93,-79.78 92.93,-79.62"/>
<text text-anchor="start" x="69.68" y="-93.2" font-family="Helvetica,sans-Serif" font-size="10.00">any &#160;&#160;</text>
</g>
<!-- x -->
<g id="node4" class="node state regular">
<title>x</title>
<polygon fill="#ffffff" fill-opacity="0.003922" stroke="none" stroke-width="2" points="202.35,-52.2 146.35,-52.2 146.35,-15.8 202.35,-15.8 202.35,-52.2"/>
<text text-anchor="start" x="171.35" y="-30.4" font-family="Helvetica,sans-Serif" font-size="12.00">x</text>
<path fill="none" stroke="black" stroke-width="2" d="M158.81,-16.8C158.81,-16.8 189.88,-16.8 189.88,-16.8 195.61,-16.8 201.35,-22.53 201.35,-28.27 201.35,-28.27 201.35,-39.73 201.35,-39.73 201.35,-45.47 195.61,-51.2 189.88,-51.2 189.88,-51.2 158.81,-51.2 158.81,-51.2 153.08,-51.2 147.35,-45.47 147.35,-39.73 147.35,-39.73 147.35,-28.27 147.35,-28.27 147.35,-22.53 153.08,-16.8 158.81,-16.8"/>
</g>
<!-- **&#45;&gt;x -->
<g id="edge3" class="edge transition">
<title>**&#45;&gt;x</title>
<path fill="none" stroke="black" d="M109.56,-45.29C117.67,-43.85 126.75,-42.24 135.46,-40.7"/>
<polygon fill="black" stroke="black" points="135.85,-44.19 145.09,-39 134.63,-37.3 135.85,-44.19"/>
<text text-anchor="start" x="117.91" y="-46.43" font-family="Helvetica,sans-Serif" font-size="10.00">&quot;x&quot; &#160;&#160;</text>
</g>
<!-- y -->
<g id="node5" class="node state regular">
<title>y</title>
<polygon fill="#ffffff" fill-opacity="0.003922" stroke="none" stroke-width="2" points="202.35,-110.2 146.35,-110.2 146.35,-73.8 202.35,-73.8 202.35,-110.2"/>
<text text-anchor="start" x="171.35" y="-88.4" font-family="Helvetica,sans-Serif" font-size="12.00">y</text>
<path fill="none" stroke="black" stroke-width="2" d="M158.81,-74.8C158.81,-74.8 189.88,-74.8 189.88,-74.8 195.61,-74.8 201.35,-80.53 201.35,-86.27 201.35,-86.27 201.35,-97.73 201.35,-97.73 201.35,-103.47 195.61,-109.2 189.88,-109.2 189.88,-109.2 158.81,-109.2 158.81,-109.2 153.08,-109.2 147.35,-103.47 147.35,-97.73 147.35,-97.73 147.35,-86.27 147.35,-86.27 147.35,-80.53 153.08,-74.8 158.81,-74.8"/>
</g>
<!-- **&#45;&gt;y -->
<g id="edge4" class="edge transition">
<title>**&#45;&gt;y</title>
<path fill="none" stroke="black" d="M109.56,-62.37C117.95,-66.27 127.37,-70.65 136.34,-74.81"/>
<polygon fill="black" stroke="black" points="134.66,-77.89 145.21,-78.93 137.61,-71.54 134.66,-77.89"/>
<text text-anchor="start" x="117.91" y="-77.76" font-family="Helvetica,sans-Serif" font-size="10.00">&quot;y&quot; &#160;&#160;</text>
</g>
</g>
</svg>
