<?xml version="1.0" encoding="UTF-8" standalone="no"?>
<!DOCTYPE svg PUBLIC "-//W3C//DTD SVG 1.1//EN"
 "http://www.w3.org/Graphics/SVG/1.1/DTD/svg11.dtd">
<!-- Generated by graphviz version 12.2.0 (0)
 -->
<!-- Pages: 1 -->
<svg width="245pt" height="151pt"
 viewBox="0.00 0.00 244.55 151.00" xmlns="http://www.w3.org/2000/svg" xmlns:xlink="http://www.w3.org/1999/xlink">
<g id="graph0" class="graph" transform="scale(1 1) rotate(0) translate(4 147)">
<polygon fill="white" stroke="none" points="-4,4 -4,-147 240.55,-147 240.55,4 -4,4"/>
<g id="clust1" class="cluster">
<title>%3</title>
<path fill="white" stroke="black" stroke-width="2" d="M20,-8C20,-8 216.55,-8 216.55,-8 222.55,-8 228.55,-14 228.55,-20 228.55,-20 228.55,-123 228.55,-123 228.55,-129 222.55,-135 216.55,-135 216.55,-135 20,-135 20,-135 14,-135 8,-129 8,-123 8,-123 8,-20 8,-20 8,-14 14,-8 20,-8"/>
<text text-anchor="middle" x="118.28" y="-119.6" font-family="Helvetica,sans-Serif" font-size="12.00">**.x, **.y</text>
</g>
<!-- initial -->
<g id="node1" class="node">
<title>initial</title>
<ellipse fill="black" stroke="black" stroke-width="2" cx="21.4" cy="-49" rx="5.4" ry="5.4"/>
</g>
<!-- ** -->
<g id="node2" class="node">
<title>**</title>
<path fill="none" stroke="black" stroke-width="2" d="M105.8,-67C105.8,-67 75.8,-67 75.8,-67 69.8,-67 63.8,-61 63.8,-55 63.8,-55 63.8,-43 63.8,-43 63.8,-37 69.8,-31 75.8,-31 75.8,-31 105.8,-31 105.8,-31 111.8,-31 117.8,-37 117.8,-43 117.8,-43 117.8,-55 117.8,-55 117.8,-61 111.8,-67 105.8,-67"/>
<text text-anchor="middle" x="90.8" y="-43.98" font-family="Helvetica,sans-Serif" font-size="12.00">**</text>
</g>
<!-- initial&#45;&gt;** -->
<g id="edge1" class="edge">
<title>initial&#45;&gt;**</title>
<path fill="none" stroke="black" d="M27.69,-49C33.18,-49 42.28,-49 51.85,-49"/>
<polygon fill="black" stroke="black" points="51.59,-52.5 61.59,-49 51.59,-45.5 51.59,-52.5"/>
</g>
<!-- **&#45;&gt;** -->
<g id="edge2" class="edge">
<title>**&#45;&gt;**</title>
<path fill="none" stroke="black" d="M82.48,-67.89C81.45,-76.98 84.22,-85 90.8,-85 94.29,-85 96.71,-82.74 98.06,-79.25"/>
<polygon fill="black" stroke="black" points="101.54,-79.68 98.98,-69.4 94.57,-79.03 101.54,-79.68"/>
<text text-anchor="middle" x="90.8" y="-86.75" font-family="Helvetica,sans-Serif" font-size="10.00">any</text>
</g>
<!-- x -->
<g id="node3" class="node">
<title>x</title>
<path fill="none" stroke="black" stroke-width="2" d="M208.55,-52C208.55,-52 178.55,-52 178.55,-52 172.55,-52 166.55,-46 166.55,-40 166.55,-40 166.55,-28 166.55,-28 166.55,-22 172.55,-16 178.55,-16 178.55,-16 208.55,-16 208.55,-16 214.55,-16 220.55,-22 220.55,-28 220.55,-28 220.55,-40 220.55,-40 220.55,-46 214.55,-52 208.55,-52"/>
<text text-anchor="middle" x="193.55" y="-28.98" font-family="Helvetica,sans-Serif" font-size="12.00">x</text>
</g>
<!-- **&#45;&gt;x -->
<g id="edge3" class="edge">
<title>**&#45;&gt;x</title>
<path fill="none" stroke="black" d="M118.8,-44.98C129.84,-43.34 142.81,-41.41 154.77,-39.63"/>
<polygon fill="black" stroke="black" points="154.95,-43.14 164.33,-38.2 153.92,-36.21 154.95,-43.14"/>
<text text-anchor="middle" x="142.18" y="-44.15" font-family="Helvetica,sans-Serif" font-size="10.00">&quot;x&quot;</text>
</g>
<!-- y -->
<g id="node4" class="node">
<title>y</title>
<path fill="none" stroke="black" stroke-width="2" d="M208.55,-106C208.55,-106 178.55,-106 178.55,-106 172.55,-106 166.55,-100 166.55,-94 166.55,-94 166.55,-82 166.55,-82 166.55,-76 172.55,-70 178.55,-70 178.55,-70 208.55,-70 208.55,-70 214.55,-70 220.55,-76 220.55,-82 220.55,-82 220.55,-94 220.55,-94 220.55,-100 214.55,-106 208.55,-106"/>
<text text-anchor="middle" x="193.55" y="-82.97" font-family="Helvetica,sans-Serif" font-size="12.00">y</text>
</g>
<!-- **&#45;&gt;y -->
<g id="edge4" class="edge">
<title>**&#45;&gt;y</title>
<path fill="none" stroke="black" d="M118.8,-59.45C129.96,-63.77 143.08,-68.85 155.14,-73.52"/>
<polygon fill="black" stroke="black" points="153.83,-76.76 164.41,-77.11 156.35,-70.23 153.83,-76.76"/>
<text text-anchor="middle" x="142.18" y="-72.59" font-family="Helvetica,sans-Serif" font-size="10.00">&quot;y&quot;</text>
</g>
</g>
</svg>
