<?xml version="1.0" encoding="UTF-8" standalone="no"?>
<!DOCTYPE svg PUBLIC "-//W3C//DTD SVG 1.1//EN"
 "http://www.w3.org/Graphics/SVG/1.1/DTD/svg11.dtd">
<!-- Generated by graphviz version 12.2.0 (0)
 -->
<!-- Pages: 1 -->
<svg width="198pt" height="126pt"
 viewBox="0.00 0.00 197.60 126.00" xmlns="http://www.w3.org/2000/svg" xmlns:xlink="http://www.w3.org/1999/xlink">
<g id="graph0" class="graph" transform="scale(1 1) rotate(0) translate(4 122)">
<polygon fill="white" stroke="none" points="-4,4 -4,-122 193.6,-122 193.6,4 -4,4"/>
<g id="clust1" class="cluster">
<title>%3</title>
<path fill="white" stroke="black" stroke-width="2" d="M20,-8C20,-8 169.6,-8 169.6,-8 175.6,-8 181.6,-14 181.6,-20 181.6,-20 181.6,-98 181.6,-98 181.6,-104 175.6,-110 169.6,-110 169.6,-110 20,-110 20,-110 14,-110 8,-104 8,-98 8,-98 8,-20 8,-20 8,-14 14,-8 20,-8"/>
<text text-anchor="middle" x="94.8" y="-94.6" font-family="Helvetica,sans-Serif" font-size="12.00">star</text>
</g>
<!-- initial -->
<g id="node1" class="node">
<title>initial</title>
<ellipse fill="black" stroke="black" stroke-width="2" cx="21.4" cy="-34" rx="5.4" ry="5.4"/>
</g>
<!-- ** -->
<g id="node3" class="node">
<title>**</title>
<path fill="none" stroke="black" stroke-width="2" d="M105.8,-52C105.8,-52 75.8,-52 75.8,-52 69.8,-52 63.8,-46 63.8,-40 63.8,-40 63.8,-28 63.8,-28 63.8,-22 69.8,-16 75.8,-16 75.8,-16 105.8,-16 105.8,-16 111.8,-16 117.8,-22 117.8,-28 117.8,-28 117.8,-40 117.8,-40 117.8,-46 111.8,-52 105.8,-52"/>
<text text-anchor="middle" x="90.8" y="-28.98" font-family="Helvetica,sans-Serif" font-size="12.00">**</text>
</g>
<!-- initial&#45;&gt;** -->
<g id="edge1" class="edge">
<title>initial&#45;&gt;**</title>
<path fill="none" stroke="black" d="M27.69,-34C33.18,-34 42.28,-34 51.85,-34"/>
<polygon fill="black" stroke="black" points="51.59,-37.5 61.59,-34 51.59,-30.5 51.59,-37.5"/>
</g>
<!-- final -->
<g id="node2" class="node">
<title>final</title>
<ellipse fill="black" stroke="black" stroke-width="2" cx="164.2" cy="-34" rx="5.4" ry="5.4"/>
<ellipse fill="none" stroke="black" stroke-width="2" cx="164.2" cy="-34" rx="9.4" ry="9.4"/>
</g>
<!-- **&#45;&gt;final -->
<g id="edge3" class="edge">
<title>**&#45;&gt;final</title>
<path fill="none" stroke="black" d="M118.79,-34C126.59,-34 134.98,-34 142.34,-34"/>
<polygon fill="black" stroke="black" points="142.29,-37.5 152.29,-34 142.29,-30.5 142.29,-37.5"/>
</g>
<!-- **&#45;&gt;** -->
<g id="edge2" class="edge">
<title>**&#45;&gt;**</title>
<path fill="none" stroke="black" d="M82.48,-52.89C81.45,-61.98 84.22,-70 90.8,-70 94.29,-70 96.71,-67.74 98.06,-64.25"/>
<polygon fill="black" stroke="black" points="101.54,-64.68 98.98,-54.4 94.57,-64.03 101.54,-64.68"/>
<text text-anchor="middle" x="90.8" y="-71.75" font-family="Helvetica,sans-Serif" font-size="10.00">any</text>
</g>
</g>
</svg>
