<?xml version="1.0" encoding="UTF-8" standalone="no"?>
<!DOCTYPE svg PUBLIC "-//W3C//DTD SVG 1.1//EN"
 "http://www.w3.org/Graphics/SVG/1.1/DTD/svg11.dtd">
<!-- Generated by graphviz version 12.2.1 (0)
 -->
<!-- Title: state transitions Pages: 1 -->
<svg width="180pt" height="137pt"
 viewBox="0.00 0.00 179.83 137.00" xmlns="http://www.w3.org/2000/svg" xmlns:xlink="http://www.w3.org/1999/xlink">
<g id="graph0" class="graph" transform="scale(1 1) rotate(0) translate(4 133)">
<title>state transitions</title>
<polygon fill="white" stroke="none" points="-4,4 -4,-133 175.83,-133 175.83,4 -4,4"/>
<g id="clust1" class="cluster state regular">
<title>cluster_star</title>
<path fill="none" stroke="black" stroke-width="2" d="M20,-8C20,-8 151.83,-8 151.83,-8 157.83,-8 163.83,-14 163.83,-20 163.83,-20 163.83,-109 163.83,-109 163.83,-115 157.83,-121 151.83,-121 151.83,-121 20,-121 20,-121 14,-121 8,-115 8,-109 8,-109 8,-20 8,-20 8,-14 14,-8 20,-8"/>
<text text-anchor="start" x="75.91" y="-102.2" font-family="Helvetica,sans-Serif" font-size="12.00">star</text>
</g>
<!-- star -->
<!-- initial -->
<g id="node2" class="node state initial">
<title>initial</title>
<ellipse fill="black" stroke="black" stroke-width="2" cx="21.4" cy="-44" rx="5.4" ry="5.4"/>
</g>
<!-- ** -->
<g id="node3" class="node state regular">
<title>**</title>
<polygon fill="#ffffff" fill-opacity="0.003922" stroke="none" stroke-width="2" points="109.91,-52.2 53.91,-52.2 53.91,-15.8 109.91,-15.8 109.91,-52.2"/>
<text text-anchor="start" x="77.24" y="-30.4" font-family="Helvetica,sans-Serif" font-size="12.00">**</text>
<path fill="none" stroke="black" stroke-width="2" d="M66.38,-16.8C66.38,-16.8 97.45,-16.8 97.45,-16.8 103.18,-16.8 108.91,-22.53 108.91,-28.27 108.91,-28.27 108.91,-39.73 108.91,-39.73 108.91,-45.47 103.18,-51.2 97.45,-51.2 97.45,-51.2 66.38,-51.2 66.38,-51.2 60.65,-51.2 54.91,-45.47 54.91,-39.73 54.91,-39.73 54.91,-28.27 54.91,-28.27 54.91,-22.53 60.65,-16.8 66.38,-16.8"/>
</g>
<!-- initial&#45;&gt;** -->
<g id="edge1" class="edge transition">
<title>initial&#45;&gt;**</title>
<path fill="none" stroke="black" d="M27.39,-43.15C31.12,-42.51 36.6,-41.57 42.66,-40.54"/>
<polygon fill="black" stroke="black" points="43.16,-44 52.42,-38.87 41.98,-37.1 43.16,-44"/>
<text text-anchor="start" x="34.8" y="-44.84" font-family="Helvetica,sans-Serif" font-size="10.00"> &#160;&#160;&#160;</text>
</g>
<!-- **&#45;&gt;** -->
<g id="edge2" class="edge transition">
<title>**&#45;&gt;**</title>
<path fill="none" stroke="black" d="M74.67,-52.19C72.92,-63.47 75.34,-74.2 81.91,-74.2 86.13,-74.2 88.63,-69.8 89.43,-63.66"/>
<polygon fill="black" stroke="black" points="92.93,-63.62 89.19,-53.7 85.93,-63.78 92.93,-63.62"/>
<text text-anchor="start" x="69.68" y="-77.2" font-family="Helvetica,sans-Serif" font-size="10.00">any &#160;&#160;</text>
</g>
<!-- final -->
<g id="node4" class="node state final">
<title>final</title>
<ellipse fill="black" stroke="black" stroke-width="2" cx="146.43" cy="-38" rx="5.4" ry="5.4"/>
<ellipse fill="none" stroke="black" stroke-width="2" cx="146.43" cy="-38" rx="9.4" ry="9.4"/>
</g>
<!-- **&#45;&gt;final -->
<g id="edge3" class="edge transition">
<title>**&#45;&gt;final</title>
<path fill="none" stroke="black" d="M109.79,-35.72C114.78,-36.04 119.93,-36.37 124.7,-36.67"/>
<polygon fill="black" stroke="black" points="124.4,-40.16 134.6,-37.31 124.84,-33.18 124.4,-40.16"/>
<text text-anchor="start" x="117.91" y="-39.93" font-family="Helvetica,sans-Serif" font-size="10.00"> &#160;&#160;&#160;</text>
</g>
</g>
</svg>
