<?xml version="1.0" encoding="UTF-8" standalone="no"?>
<!DOCTYPE svg PUBLIC "-//W3C//DTD SVG 1.1//EN"
 "http://www.w3.org/Graphics/SVG/1.1/DTD/svg11.dtd">
<!-- Generated by graphviz version 12.2.1 (0)
 -->
<!-- Title: state transitions Pages: 1 -->
<svg width="236pt" height="107pt"
 viewBox="0.00 0.00 235.67 107.00" xmlns="http://www.w3.org/2000/svg" xmlns:xlink="http://www.w3.org/1999/xlink">
<g id="graph0" class="graph" transform="scale(1 1) rotate(0) translate(4 103)">
<title>state transitions</title>
<polygon fill="white" stroke="none" points="-4,4 -4,-103 231.67,-103 231.67,4 -4,4"/>
<g id="clust1" class="cluster state regular">
<title>cluster_x.y</title>
<path fill="none" stroke="black" stroke-width="2" d="M20,-8C20,-8 207.67,-8 207.67,-8 213.67,-8 219.67,-14 219.67,-20 219.67,-20 219.67,-79 219.67,-79 219.67,-85 213.67,-91 207.67,-91 207.67,-91 20,-91 20,-91 14,-91 8,-85 8,-79 8,-79 8,-20 8,-20 8,-14 14,-8 20,-8"/>
<text text-anchor="start" x="106.17" y="-72.2" font-family="Helvetica,sans-Serif" font-size="12.00">x.y</text>
</g>
<!-- x.y -->
<!-- initial -->
<g id="node2" class="node state initial">
<title>initial</title>
<ellipse fill="black" stroke="black" stroke-width="2" cx="21.4" cy="-44" rx="5.4" ry="5.4"/>
</g>
<!-- x -->
<g id="node3" class="node state regular">
<title>x</title>
<polygon fill="#ffffff" fill-opacity="0.003922" stroke="none" stroke-width="2" points="119.23,-52.2 63.23,-52.2 63.23,-15.8 119.23,-15.8 119.23,-52.2"/>
<text text-anchor="start" x="88.23" y="-30.4" font-family="Helvetica,sans-Serif" font-size="12.00">x</text>
<path fill="none" stroke="black" stroke-width="2" d="M75.7,-16.8C75.7,-16.8 106.77,-16.8 106.77,-16.8 112.5,-16.8 118.23,-22.53 118.23,-28.27 118.23,-28.27 118.23,-39.73 118.23,-39.73 118.23,-45.47 112.5,-51.2 106.77,-51.2 106.77,-51.2 75.7,-51.2 75.7,-51.2 69.97,-51.2 64.23,-45.47 64.23,-39.73 64.23,-39.73 64.23,-28.27 64.23,-28.27 64.23,-22.53 69.97,-16.8 75.7,-16.8"/>
</g>
<!-- initial&#45;&gt;x -->
<g id="edge1" class="edge transition">
<title>initial&#45;&gt;x</title>
<path fill="none" stroke="black" d="M27.72,-43.22C33.25,-42.4 42.41,-41.05 52.04,-39.63"/>
<polygon fill="black" stroke="black" points="52.49,-43.1 61.87,-38.18 51.47,-36.18 52.49,-43.1"/>
<text text-anchor="start" x="34.8" y="-45.09" font-family="Helvetica,sans-Serif" font-size="10.00">&quot;x&quot; &#160;&#160;</text>
</g>
<!-- y -->
<g id="node4" class="node state regular">
<title>y</title>
<polygon fill="#ffffff" fill-opacity="0.003922" stroke="none" stroke-width="2" points="211.67,-52.2 155.67,-52.2 155.67,-15.8 211.67,-15.8 211.67,-52.2"/>
<text text-anchor="start" x="180.67" y="-30.4" font-family="Helvetica,sans-Serif" font-size="12.00">y</text>
<path fill="none" stroke="black" stroke-width="2" d="M168.14,-16.8C168.14,-16.8 199.2,-16.8 199.2,-16.8 204.94,-16.8 210.67,-22.53 210.67,-28.27 210.67,-28.27 210.67,-39.73 210.67,-39.73 210.67,-45.47 204.94,-51.2 199.2,-51.2 199.2,-51.2 168.14,-51.2 168.14,-51.2 162.4,-51.2 156.67,-45.47 156.67,-39.73 156.67,-39.73 156.67,-28.27 156.67,-28.27 156.67,-22.53 162.4,-16.8 168.14,-16.8"/>
</g>
<!-- x&#45;&gt;y -->
<g id="edge2" class="edge transition">
<title>x&#45;&gt;y</title>
<path fill="none" stroke="black" d="M118.88,-34C126.9,-34 135.87,-34 144.49,-34"/>
<polygon fill="black" stroke="black" points="144.39,-37.5 154.39,-34 144.39,-30.5 144.39,-37.5"/>
<text text-anchor="start" x="127.23" y="-37" font-family="Helvetica,sans-Serif" font-size="10.00">&quot;y&quot; &#160;&#160;</text>
</g>
</g>
</svg>
