<?xml version="1.0" encoding="UTF-8" standalone="no"?>
<!DOCTYPE svg PUBLIC "-//W3C//DTD SVG 1.1//EN"
 "http://www.w3.org/Graphics/SVG/1.1/DTD/svg11.dtd">
<!-- Generated by graphviz version 12.2.0 (0)
 -->
<!-- Pages: 1 -->
<svg width="256pt" height="97pt"
 viewBox="0.00 0.00 256.30 97.00" xmlns="http://www.w3.org/2000/svg" xmlns:xlink="http://www.w3.org/1999/xlink">
<g id="graph0" class="graph" transform="scale(1 1) rotate(0) translate(4 93)">
<polygon fill="white" stroke="none" points="-4,4 -4,-93 252.3,-93 252.3,4 -4,4"/>
<g id="clust1" class="cluster">
<title>%3</title>
<path fill="white" stroke="black" stroke-width="2" d="M20,-8C20,-8 228.3,-8 228.3,-8 234.3,-8 240.3,-14 240.3,-20 240.3,-20 240.3,-69 240.3,-69 240.3,-75 234.3,-81 228.3,-81 228.3,-81 20,-81 20,-81 14,-81 8,-75 8,-69 8,-69 8,-20 8,-20 8,-14 14,-8 20,-8"/>
<text text-anchor="middle" x="124.15" y="-65.6" font-family="Helvetica,sans-Serif" font-size="12.00">x.y</text>
</g>
<!-- initial -->
<g id="node1" class="node">
<title>initial</title>
<ellipse fill="black" stroke="black" stroke-width="2" cx="21.4" cy="-34" rx="5.4" ry="5.4"/>
</g>
<!-- x -->
<g id="node2" class="node">
<title>x</title>
<path fill="none" stroke="black" stroke-width="2" d="M117.55,-52C117.55,-52 87.55,-52 87.55,-52 81.55,-52 75.55,-46 75.55,-40 75.55,-40 75.55,-28 75.55,-28 75.55,-22 81.55,-16 87.55,-16 87.55,-16 117.55,-16 117.55,-16 123.55,-16 129.55,-22 129.55,-28 129.55,-28 129.55,-40 129.55,-40 129.55,-46 123.55,-52 117.55,-52"/>
<text text-anchor="middle" x="102.55" y="-28.98" font-family="Helvetica,sans-Serif" font-size="12.00">x</text>
</g>
<!-- initial&#45;&gt;x -->
<g id="edge1" class="edge">
<title>initial&#45;&gt;x</title>
<path fill="none" stroke="black" d="M27.59,-34C35.03,-34 49.37,-34 63.46,-34"/>
<polygon fill="black" stroke="black" points="63.06,-37.5 73.06,-34 63.06,-30.5 63.06,-37.5"/>
<text text-anchor="middle" x="51.18" y="-35.75" font-family="Helvetica,sans-Serif" font-size="10.00">&quot;x&quot;</text>
</g>
<!-- y -->
<g id="node3" class="node">
<title>y</title>
<path fill="none" stroke="black" stroke-width="2" d="M220.3,-52C220.3,-52 190.3,-52 190.3,-52 184.3,-52 178.3,-46 178.3,-40 178.3,-40 178.3,-28 178.3,-28 178.3,-22 184.3,-16 190.3,-16 190.3,-16 220.3,-16 220.3,-16 226.3,-16 232.3,-22 232.3,-28 232.3,-28 232.3,-40 232.3,-40 232.3,-46 226.3,-52 220.3,-52"/>
<text text-anchor="middle" x="205.3" y="-28.98" font-family="Helvetica,sans-Serif" font-size="12.00">y</text>
</g>
<!-- x&#45;&gt;y -->
<g id="edge2" class="edge">
<title>x&#45;&gt;y</title>
<path fill="none" stroke="black" d="M130.55,-34C141.48,-34 154.29,-34 166.15,-34"/>
<polygon fill="black" stroke="black" points="166.06,-37.5 176.06,-34 166.06,-30.5 166.06,-37.5"/>
<text text-anchor="middle" x="153.93" y="-35.75" font-family="Helvetica,sans-Serif" font-size="10.00">&quot;y&quot;</text>
</g>
</g>
</svg>
